<svg id="Layer_1" data-name="Layer 1" xmlns="http://www.w3.org/2000/svg" viewBox="0 0 48 48"><defs><style>.cls-1{fill:#fff;}.cls-2{fill:#e95456;}.cls-3{fill:#198781;}</style></defs><title>appicon</title><rect class="cls-1" x="1.37" y="1.35" width="45.25" height="45.25" rx="12.73"/><path class="cls-2" d="M.18,24v-10A13.66,13.66,0,0,1,13.76.09Q24.38,0,35,.11c6.26.1,12.28,5.73,12.66,12,.27,4.46.16,8.94.17,13.41,0,3.31,0,6.63-.14,9.93A13.59,13.59,0,0,1,34.34,48q-10.28,0-20.56,0A13.66,13.66,0,0,1,.19,34.48C.14,31,.19,27.46.18,24Zm2.57,0h0c0,3.6-.1,7.2,0,10.79A10.87,10.87,0,0,0,13.41,45.36q10.53.18,21.06,0a10.87,10.87,0,0,0,10.7-10.64c.14-7.24.14-14.5,0-21.74A10.83,10.83,0,0,0,35,2.72c-7-.16-14.1-.22-21.15-.06C7.18,2.81,2.77,7.57,2.75,14.27,2.74,17.5,2.75,20.72,2.75,24Z"/><path class="cls-2" d="M25.09,31a73.73,73.73,0,0,1,.06-8.3A6.77,6.77,0,0,1,32.6,17a7,7,0,0,1-.2,13.91C30,31,27.55,31,25.09,31ZM36.32,24A4.37,4.37,0,0,0,32,19.58,4.41,4.41,0,1,0,36.32,24Z"/><path class="cls-3" d="M22.84,17c0,.94,0,1.84,0,2.75H15.89a4.52,4.52,0,0,0-4,2.87,4.41,4.41,0,0,0,1.29,4.71,4.61,4.61,0,0,0,2.61,1c1.22.08,3.17,0,4.22,0,0-1.08,0-1.92,0-2.94h-3.6V22.74h6.44c0,2.6,0,5.53,0,8.34-.52,0-3.82.07-6.62,0a7.41,7.41,0,0,1-4.81-1.49A7.13,7.13,0,0,1,9.22,22a6.56,6.56,0,0,1,6.45-5C17.65,17.05,22.34,17,22.84,17Z"/></svg>