<svg id="Layer_1" data-name="Layer 1" xmlns="http://www.w3.org/2000/svg" viewBox="0 0 512 512"><defs><style>.cls-1{fill:#fff;}.cls-2{fill:#e95456;}.cls-3{fill:#198781;}</style></defs><title>storeicon</title><rect class="cls-1" x="14.99" y="14.78" width="482.03" height="482.03" rx="133.82"/><path class="cls-2" d="M2.33,255.44q0-53.37,0-106.74C2.35,67.19,65.44,2.17,147,1.3c75.37-.8,150.76-.84,226.12.29,66.64,1,130.76,61,134.79,127.27,2.89,47.47,1.72,95.21,1.81,142.83.07,35.26.56,70.59-1.41,105.76-4.11,73.24-68.64,133.4-142.17,133.65q-109.45.38-218.9,0C68,510.79,3.57,447,2.43,367.6,1.9,330.22,2.34,292.83,2.33,255.44Zm27.33.05h.23c0,38.3-1.06,76.63.24,114.89,2.12,62.32,51.22,112,113,113.11q112.16,2,224.36,0c62.3-1,112.73-51,114-113.33q2.26-115.76.21-231.58c-.93-56.56-51.74-108-108.23-109.29-75-1.72-150.19-2.29-225.24-.62C76.88,30.28,29.88,81,29.67,152.35,29.57,186.73,29.66,221.11,29.66,255.49Z"/><path class="cls-2" d="M267.56,330.13c0-30.79-2.65-59.92.66-88.36,4.37-37.59,41.85-63.89,79.39-60,38.66,4,68.27,37,67.29,75-1,38.64-31.55,71.53-69.47,73.12C319.64,331,293.77,330.13,267.56,330.13Zm119.65-73.78a46.64,46.64,0,0,0-45.59-47.47c-25.89-.62-47.87,20.52-48.15,46.32-.28,26,21.13,47.67,47,47.52A46.75,46.75,0,0,0,387.21,256.35Z"/><path class="cls-3" d="M243.6,181.87c0,10-.26,19.62-.26,29.32-24.31,0-50.22-.06-73.67,0-18.75.26-35.71,13.66-42.32,30.56-5.75,14.74-1.58,37.5,13.74,50.18,4.86,3.61,13.65,10.19,27.81,11.06,12.94.79,33.79-.26,44.88,0,0-11.57-.08-20.5-.08-31.38H175.41c0-9.53-.06-20.29-.06-29.07,20.84,0,47,.07,68.66.07,0,27.64.06,58.84.06,88.84-5.54.09-40.69.67-70.5-.44-21.73-.81-35.72-4-51.23-15.85-24.9-19.07-31.16-52.28-23.74-80.23,8.57-32.22,35.87-53.19,68.69-53.06C188.41,182,238.32,181.61,243.6,181.87Z"/></svg>