<svg enable-background="new 0 0 512 512" viewBox="0 0 512 512" width="25" xmlns="http://www.w3.org/2000/svg"><g fill="#c0ecd3"><path d="m512 256h-111.092c-2.7 0-4.898-2.146-4.99-4.844-1.161-34.141-14.547-65.181-35.917-88.88-24.618-27.299-59.831-44.858-99.161-46.194-2.697-.092-4.84-2.291-4.84-4.989v-111.093c141.385 0 256 114.615 256 256z"/><path d="m490 256h-74c0-88.366-71.635-160-160-160v-95.049c131.083 11.16 234 121.077 234 255.049zm21.937-5c.032 1.664.063 3.328.063 5 0-1.672-.031-3.336-.063-5z"/></g></svg>