<?xml version="1.0" encoding="iso-8859-1"?>
<!-- Generator: Adobe Illustrator 19.0.0, SVG Export Plug-In . SVG Version: 6.00 Build 0)  -->
<svg width="25px" version="1.1" id="Capa_1" xmlns="http://www.w3.org/2000/svg" xmlns:xlink="http://www.w3.org/1999/xlink" x="0px" y="0px"
	 viewBox="0 0 512 512" style="enable-background:new 0 0 512 512;" xml:space="preserve">
<g>
	
	<path style="fill:#c0ecd3;" d="M512,256H400.908c-2.7,0-4.898-2.146-4.99-4.844c-1.161-34.141-14.547-65.181-35.917-88.88
		c-24.618-27.299-59.831-44.858-99.161-46.194c-2.697-0.092-4.84-2.291-4.84-4.989V0C397.385,0,512,114.615,512,256z"/>
</g>
<path style="fill:#c0ecd3;" d="M490,256h-74c0-88.366-71.635-160-160-160V0.951C387.083,12.111,490,122.028,490,256z M511.937,251
	c0.032,1.664,0.063,3.328,0.063,5l0,0C512,254.328,511.969,252.664,511.937,251L511.937,251z"/>
<g>
</g>
<g>
</g>
<g>
</g>
<g>
</g>
<g>
</g>
<g>
</g>
<g>
</g>
<g>
</g>
<g>
</g>
<g>
</g>
<g>
</g>
<g>
</g>
<g>
</g>
<g>
</g>
<g>
</g>
</svg>
