<svg xmlns="http://www.w3.org/2000/svg" xmlns:xlink="http://www.w3.org/1999/xlink" width="294" height="211" viewBox="0 0 294 211"><defs><style>.a{opacity:0.75;}.b,.c{fill:#1c8983;}.b,.h,.i,.p{opacity:0.1;}.d,.g{opacity:0.2;}.e{fill:#636780;}.f{opacity:0.4;}.aa,.g,.h,.m{fill:#fff;}.j{fill:#dce0ed;}.k{fill:#f0f0f4;}.l{fill:none;}.n{fill:#a8a8a8;}.o{fill:url(#a);}.q{fill:url(#b);}.r{fill:#985c7e;}.s{fill:#ecb4b6;}.t{opacity:0.07;}.u{opacity:0.05;}.v{fill:#cc8294;}.w{fill:#4b4b5b;}.x{opacity:0.03;}.y{fill:#ff718d;}.z{fill:#e7c7ca;}.aa{opacity:0.3;}</style><linearGradient id="a" x1="0.5" y1="1" x2="0.5" gradientUnits="objectBoundingBox"><stop offset="0" stop-color="gray" stop-opacity="0.251"/><stop offset="0.54" stop-color="gray" stop-opacity="0.122"/><stop offset="1" stop-color="gray" stop-opacity="0.102"/></linearGradient><linearGradient id="b" x1="0" y1="0.5" x2="1" y2="0.5" xlink:href="#a"/></defs><g class="a" transform="translate(0 -0.053)"><ellipse class="b" cx="44.257" cy="4.895" rx="44.257" ry="4.895" transform="translate(111.303 201.262)"/><path class="b" d="M331.286,187.107c-6.886,14.242-20.875,23.765-35.367,30.045a134.184,134.184,0,0,1-62.2,10.393q-5.574-.369-11.109-1.187a139.869,139.869,0,0,1-37.143-10.851q-5.107-2.313-10.033-5.03A128.26,128.26,0,0,1,159.765,200.2q-1.874-1.434-3.7-2.941c-.843-.7-1.677-1.408-2.525-2.1a31.862,31.862,0,0,0-5.683-3.879,20.277,20.277,0,0,0-1.9-.842c-6.5-2.479-14-1.543-20.768.39-5.143,1.458-10.155,3.471-15.306,4.908a50.714,50.714,0,0,1-6.976,1.486,37.047,37.047,0,0,1-15.682-1.369l-.433-.135q-1.089-.343-2.16-.751L84.2,194.8q-1.037-.4-2.03-.86l-.433-.2q-1.037-.483-2.03-1.021c-.239-.125-.474-.26-.708-.387a42.445,42.445,0,0,1-10.152-7.922c-.086-.086-.166-.174-.259-.26-.412-.447-.817-.9-1.208-1.367-.145-.171-.29-.343-.433-.52q-.7-.855-1.345-1.744c-.065-.086-.127-.174-.189-.26a37.6,37.6,0,0,1-4.374-7.925c-.036-.086-.07-.174-.1-.26q-.518-1.338-.946-2.72c-.117-.385-.228-.78-.327-1.164-.034-.114-.065-.231-.093-.346C58.153,162.207,58,156.337,58,150.5v-2.04c.041-9.44.187-19.041,1.576-28.351a1.185,1.185,0,0,1,.029-.192,88.718,88.718,0,0,1,1.9-9.307,68.769,68.769,0,0,1,3.191-9.432A87.656,87.656,0,0,1,77.7,80.431c12.988-15.983,30.039-29.419,50-34.431a73.465,73.465,0,0,1,62.751,13.616c5.289,4.22,10.041,9.216,15.98,12.451,5.185,2.817,11.254,3.983,16.807,1.767,4.589-1.819,7.575-2.741,12.729-2.463a106.487,106.487,0,0,1,31.2,6.545c.4.148.809.3,1.211.455,26.109,10.017,48.557,29.907,60.218,55.468q.464,1.013.9,2.042C336.448,152.151,338.958,171.241,331.286,187.107Z" transform="translate(-51.513 -43.84)"/><path class="b" d="M109.891,218.462v98.311a50.822,50.822,0,0,1-6.977,1.483,37.133,37.133,0,0,1-15.684-1.366l-.433-.135q-1.089-.342-2.16-.749l-.433-.166q-1.037-.4-2.03-.858l-.433-.2q-1.037-.482-2.03-1.019c-.239-.124-.474-.259-.708-.386a42.438,42.438,0,0,1-10.154-7.906c-.086-.086-.166-.174-.259-.259-.412-.446-.817-.9-1.208-1.364-.145-.171-.29-.342-.433-.519q-.7-.853-1.346-1.74c-.065-.086-.127-.174-.189-.259a37.491,37.491,0,0,1-4.374-7.908c-.036-.086-.07-.174-.1-.259q-.519-1.335-.946-2.715c-.117-.384-.228-.778-.327-1.162-.034-.114-.065-.231-.093-.345C58.153,283.312,58,277.454,58,271.631V269.6c.041-9.42.187-19,1.576-28.291a1.181,1.181,0,0,1,.029-.192,88.354,88.354,0,0,1,1.9-9.288h26.47V218.462h5.292V207.73h11.362v10.732Z" transform="translate(-51.513 -165.03)"/><path class="b" d="M582.635,283.752c-6.887,14.211-20.878,23.714-35.372,29.981a134.475,134.475,0,0,1-62.205,10.371q-5.575-.368-11.11-1.185A140.128,140.128,0,0,1,436.8,312.092q-5.108-2.308-10.034-5.02A128.306,128.306,0,0,1,411.09,296.82q-1.875-1.431-3.7-2.935c-.843-.695-1.678-1.405-2.525-2.1a31.87,31.87,0,0,0-5.684-3.871,20.3,20.3,0,0,0-1.9-.84V246.848H445.4V255.8H466.52v-65.49h24.858V216.5h12.3V200.994h10.159V184.431H518.5V174.78c.4.148.809.3,1.211.454v9.2h4.548V201h10.156v15.505h14.969v59.073h23.792V232.621h7.667C587.8,248.871,590.308,267.921,582.635,283.752Z" transform="translate(-302.862 -140.399)"/><rect class="b" width="11.11" height="11.11" transform="translate(171.102 59.49)"/><rect class="b" width="11.11" height="11.11" transform="translate(171.102 82.568)"/><rect class="b" width="11.11" height="11.11" transform="translate(171.102 105.643)"/><rect class="b" width="11.11" height="11.11" transform="translate(171.102 128.72)"/><rect class="b" width="11.11" height="11.11" transform="translate(171.102 151.798)"/><path class="b" d="M704.08,716.81v8.774q-5.575-.368-11.11-1.185V716.81Z" transform="translate(-521.869 -541.888)"/><rect class="b" width="38.89" height="5.033" transform="translate(98.106 120.647)"/><rect class="b" width="38.89" height="5.033" transform="translate(98.106 135.958)"/><path class="b" d="M461.522,626v5.03H432.783q-1.875-1.431-3.7-2.935c-.843-.695-1.678-1.405-2.525-2.1Z" transform="translate(-324.526 -474.728)"/><path class="b" d="M524.068,685v5.033h-3.034Q515.926,687.712,511,685Z" transform="translate(-387.074 -518.401)"/><rect class="b" width="7.231" height="7.231" transform="translate(200.765 89.631)"/><rect class="b" width="7.231" height="7.231" transform="translate(44.185 55.864)"/><rect class="b" width="7.231" height="7.231" transform="translate(44.185 72.698)"/><rect class="b" width="7.231" height="7.231" transform="translate(44.185 89.532)"/><rect class="b" width="7.231" height="7.231" transform="translate(44.185 106.364)"/><rect class="b" width="7.231" height="7.231" transform="translate(44.185 123.198)"/><rect class="b" width="7.231" height="7.231" transform="translate(44.185 140.032)"/><rect class="b" width="7.231" height="7.231" transform="translate(228.375 89.631)"/><rect class="b" width="7.231" height="7.231" transform="translate(200.765 107.507)"/><rect class="b" width="7.231" height="7.231" transform="translate(228.375 107.507)"/><rect class="b" width="7.231" height="7.231" transform="translate(200.765 125.38)"/><rect class="b" width="7.231" height="7.231" transform="translate(228.375 125.38)"/><rect class="b" width="7.231" height="7.231" transform="translate(200.765 143.256)"/><rect class="b" width="7.231" height="7.231" transform="translate(228.375 143.256)"/><rect class="b" width="7.231" height="7.231" transform="translate(200.765 161.131)"/><rect class="b" width="7.231" height="7.231" transform="translate(228.375 161.131)"/><path class="b" d="M774.41,693.565V688.9h7.232v4Z" transform="translate(-573.645 -509.848)"/><path class="b" d="M64.06,336.48v4.149H91.718V336.48Zm2.463,3.889h-2.03v-3.63h2.03Zm2.463,0h-2.03v-3.63h2.03Zm2.463,0h-2.03v-3.63h2.03Zm2.463,0h-2.03v-3.63h2.03Zm2.463,0h-2.03v-3.63h2.03Zm2.463,0h-2.03v-3.63h2.03Zm2.463,0h-2.03v-3.63H81.3Zm2.463,0h-2.03v-3.63h2.03Zm2.463,0H84.2v-3.63h2.03Zm2.463,0h-2.03v-3.63h2.03Zm2.593,0h-2.16v-3.63h2.16Z" transform="translate(-56.001 -260.42)"/><path class="b" d="M64.06,382.94v4.136H91.718V382.94Zm2.463,3.876h-2.03V383.2h2.03Zm2.463,0h-2.03V383.2h2.03Zm2.463,0h-2.03V383.2h2.03Zm2.463,0h-2.03V383.2h2.03Zm2.463,0h-2.03V383.2h2.03Zm2.463,0h-2.03V383.2h2.03Zm2.463,0h-2.03V383.2H81.3Zm2.463,0h-2.03V383.2h2.03Zm2.463,0H84.2V383.2h2.03Zm2.463,0h-2.03V383.2h2.03Zm2.593,0h-2.16V383.2h2.16Z" transform="translate(-56.001 -294.811)"/><path class="b" d="M64.06,429.39v4.136H91.718V429.39Zm2.463,3.876h-2.03v-3.617h2.03Zm2.463,0h-2.03v-3.617h2.03Zm2.463,0h-2.03v-3.617h2.03Zm2.463,0h-2.03v-3.617h2.03Zm2.463,0h-2.03v-3.617h2.03Zm2.463,0h-2.03v-3.617h2.03Zm2.463,0h-2.03v-3.617H81.3Zm2.463,0h-2.03v-3.617h2.03Zm2.463,0H84.2v-3.617h2.03Zm2.463,0h-2.03v-3.617h2.03Zm2.593,0h-2.16v-3.617h2.16Z" transform="translate(-56.001 -329.194)"/><path class="b" d="M64.06,475.84v4.149H91.718V475.84Zm2.463,3.889h-2.03V476.1h2.03Zm2.463,0h-2.03V476.1h2.03Zm2.463,0h-2.03V476.1h2.03Zm2.463,0h-2.03V476.1h2.03Zm2.463,0h-2.03V476.1h2.03Zm2.463,0h-2.03V476.1h2.03Zm2.463,0h-2.03V476.1H81.3Zm2.463,0h-2.03V476.1h2.03Zm2.463,0H84.2V476.1h2.03Zm2.463,0h-2.03V476.1h2.03Zm2.593,0h-2.16V476.1h2.16Z" transform="translate(-56.001 -363.577)"/><path class="b" d="M64.47,522.29c.1.389.21.778.327,1.162v-.9h2.03v3.63H65.743c.031.086.065.174.1.259H92.032V522.29Zm4.82,3.889H67.26v-3.63h2.03Zm2.463,0h-2.03v-3.63h2.03Zm2.463,0h-2.03v-3.63h2.03Zm2.463,0H74.65v-3.63h2.03Zm2.463,0h-2.03v-3.63h2.03Zm2.463,0h-2.03v-3.63h2.03Zm2.463,0h-2.03v-3.63h2.03Zm2.463,0H84.5v-3.63h2.03Zm2.463,0h-2.03v-3.63H89Zm2.593,0h-2.16v-3.63h2.16Z" transform="translate(-56.305 -397.961)"/><path class="b" d="M86.64,568.74c.062.086.124.174.189.259h1.346v1.74c.143.174.288.345.433.519V569h2.03v3.63h-.822a3.492,3.492,0,0,0,.259.259h18.381v-4.149Zm6.461,3.889h-2.03V569H93.1Zm2.463,0h-2.03V569h2.03Zm2.463,0H96V569h2.03Zm2.463,0h-2.03V569h2.03Zm2.463,0h-2.03V569h2.03Zm2.463,0h-2.03V569h2.03Zm2.593,0h-2.16V569h2.16Z" transform="translate(-72.727 -432.344)"/><path class="b" d="M139,615.19c.233.132.469.259.708.386v-.127h2.03V616.6l.433.2v-1.343h2.03v2.2l.433.166v-2.367h2.16v3.111l.433.135V615.19Z" transform="translate(-111.511 -466.728)"/><path class="b" d="M452.192,197.977s-6.179-.371-5.445,3.959a1.055,1.055,0,0,0,.547,1.112s.013-.322.635-.213a2.754,2.754,0,0,0,.672.034,1.387,1.387,0,0,0,.819-.34h0s1.737-.718,2.414-3.557c0,0,.5-.62.48-.778l-1.037.446a1.872,1.872,0,0,1,.075,1.377s-.034-1.351-.233-1.317c-.041,0-.542.259-.542.259a3.091,3.091,0,0,1,.15,2.264s.176-1.615-.342-2.168l-.734.428a3.245,3.245,0,0,1,.231,2.458,4.607,4.607,0,0,0-.386-2.354l-.664.519a3.168,3.168,0,0,1,.259,2.251s-.054-1.971-.407-2.121a4.149,4.149,0,0,0-.672.723s.462.97.176,1.481c0,0-.176-1.315-.319-1.32a4.356,4.356,0,0,0-.64,1.468,3.174,3.174,0,0,1,.5-1.556,1.748,1.748,0,0,0-.889.459s.091-.615,1.037-.669a4.036,4.036,0,0,1,.607-.7,3.821,3.821,0,0,0-1.5.174,1.693,1.693,0,0,1,1.675-.319l.659-.534a5.618,5.618,0,0,0-1.768.013,2.117,2.117,0,0,1,1.932-.14l.716-.428a6.539,6.539,0,0,0-1.678-.145,2.572,2.572,0,0,1,1.885.031l.519-.231s-.778-.15-1-.174-.239-.088-.239-.088a2.676,2.676,0,0,1,1.447.161A7.108,7.108,0,0,0,452.192,197.977Z" transform="translate(-339.433 -157.891)"/><path class="b" d="M403.881,279.089s-2.111,5.821,2.248,6.352a1.06,1.06,0,0,0,1.224-.21s-.306-.1-.023-.669a2.906,2.906,0,0,0,.22-.635,1.392,1.392,0,0,0-.091-.882h0s-.194-1.869-2.728-3.324c0,0-.451-.656-.609-.682l.132,1.125a1.869,1.869,0,0,1,1.34.319s-1.3-.35-1.33-.15c0,.041.1.594.1.594a3.084,3.084,0,0,1,2.214.5s-1.5-.627-2.178-.288l.2.825a3.241,3.241,0,0,1,2.424.477,4.6,4.6,0,0,0-2.367-.3l.309.778a3.208,3.208,0,0,1,2.232.389s-1.906-.519-2.15-.213a4.083,4.083,0,0,0,.5.848s1.06-.166,1.47.259c0,0-1.309-.2-1.356-.067a4.444,4.444,0,0,0,1.224,1.037,3.171,3.171,0,0,1-1.346-.918,1.758,1.758,0,0,0,.189.98s-.565-.259-.347-1.177a4.175,4.175,0,0,1-.5-.778,3.805,3.805,0,0,0-.259,1.488,1.681,1.681,0,0,1,.171-1.7l-.329-.778a5.2,5.2,0,0,0-.48,1.685,2.132,2.132,0,0,1,.415-1.89l-.207-.806a6.415,6.415,0,0,0-.615,1.556,2.574,2.574,0,0,1,.565-1.8l-.075-.557s-.366.695-.451.9-.15.2-.15.2a2.655,2.655,0,0,1,.565-1.341A6.425,6.425,0,0,0,403.881,279.089Z" transform="translate(-307.346 -217.9)"/><path class="b" d="M561.918,260.172s-2.113,5.818,2.248,6.35a1.05,1.05,0,0,0,1.221-.21s-.3-.1-.023-.669a2.954,2.954,0,0,0,.223-.633,1.4,1.4,0,0,0-.093-.884h0s-.194-1.869-2.725-3.324c0,0-.451-.653-.609-.682l.13,1.128a1.91,1.91,0,0,1,1.346.319s-1.3-.353-1.33-.15c0,.041.1.594.1.594a3.084,3.084,0,0,1,2.212.5s-1.5-.627-2.175-.288l.2.825a3.248,3.248,0,0,1,2.422.477,4.617,4.617,0,0,0-2.365-.3L563,264a3.217,3.217,0,0,1,2.232.386s-1.908-.519-2.149-.213a4.084,4.084,0,0,0,.5.85s1.06-.169,1.468.259c0,0-1.309-.2-1.356-.07a4.471,4.471,0,0,0,1.226,1.037,3.174,3.174,0,0,1-1.346-.92,1.742,1.742,0,0,0,.189.983s-.565-.259-.35-1.18a3.969,3.969,0,0,1-.5-.778,3.761,3.761,0,0,0-.259,1.491,1.689,1.689,0,0,1,.171-1.7l-.327-.778a5.248,5.248,0,0,0-.482,1.688,2.138,2.138,0,0,1,.415-1.893l-.2-.806a6.461,6.461,0,0,0-.615,1.556,2.562,2.562,0,0,1,.563-1.8l-.075-.555s-.363.695-.451.9-.148.2-.148.2a2.665,2.665,0,0,1,.563-1.341A6.583,6.583,0,0,0,561.918,260.172Z" transform="translate(-424.412 -203.895)"/><path class="b" d="M336.011,443.652s-2.111,5.821,2.248,6.35a1.055,1.055,0,0,0,1.224-.21s-.306-.1-.023-.666a2.819,2.819,0,0,0,.22-.635,1.4,1.4,0,0,0-.091-.884h0s-.194-1.869-2.725-3.324c0,0-.454-.653-.612-.682l.132,1.128a1.876,1.876,0,0,1,1.343.319s-1.3-.353-1.333-.15c0,.041.1.594.1.594a3.092,3.092,0,0,1,2.214.5s-1.5-.627-2.178-.288l.2.825a3.248,3.248,0,0,1,2.422.477,4.624,4.624,0,0,0-2.367-.3l.309.778a3.217,3.217,0,0,1,2.232.386s-1.906-.519-2.149-.213a4.006,4.006,0,0,0,.506.85s1.058-.169,1.468.259c0,0-1.309-.2-1.356-.07a4.444,4.444,0,0,0,1.224,1.037,3.173,3.173,0,0,1-1.343-.92,1.755,1.755,0,0,0,.187.983s-.563-.259-.347-1.18a4.09,4.09,0,0,1-.5-.778,3.823,3.823,0,0,0-.259,1.491,1.689,1.689,0,0,1,.171-1.7l-.327-.778a5.248,5.248,0,0,0-.482,1.688,2.132,2.132,0,0,1,.415-1.89l-.207-.809a6.465,6.465,0,0,0-.615,1.556,2.574,2.574,0,0,1,.565-1.8l-.075-.555s-.366.695-.451.9-.15.2-.15.2a2.683,2.683,0,0,1,.565-1.34A6.345,6.345,0,0,0,336.011,443.652Z" transform="translate(-257.072 -339.71)"/><path class="b" d="M303.687,232.059s-2.113,5.821,2.245,6.353a1.06,1.06,0,0,0,1.224-.21s-.3-.1-.023-.669a2.774,2.774,0,0,0,.22-.635,1.4,1.4,0,0,0-.091-.884h0s-.194-1.869-2.725-3.321c0,0-.451-.656-.612-.682l.132,1.125a1.876,1.876,0,0,1,1.343.319s-1.3-.35-1.33-.15c0,.041.1.594.1.594a3.086,3.086,0,0,1,2.212.5s-1.5-.625-2.175-.288l.2.827a3.235,3.235,0,0,1,2.422.477,4.61,4.61,0,0,0-2.365-.3l.309.778a3.209,3.209,0,0,1,2.23.386s-1.906-.519-2.149-.21a4,4,0,0,0,.506.848s1.058-.166,1.468.259c0,0-1.309-.2-1.356-.067a4.487,4.487,0,0,0,1.224,1.037,3.156,3.156,0,0,1-1.343-.918,1.735,1.735,0,0,0,.189.98s-.565-.259-.35-1.177a4.176,4.176,0,0,1-.5-.778,3.823,3.823,0,0,0-.259,1.491,1.689,1.689,0,0,1,.171-1.7l-.327-.778a5.248,5.248,0,0,0-.482,1.685,2.132,2.132,0,0,1,.415-1.89l-.207-.806a6.529,6.529,0,0,0-.615,1.556,2.572,2.572,0,0,1,.565-1.8l-.075-.557s-.363.695-.451.9-.15.2-.15.2a2.683,2.683,0,0,1,.565-1.341A6.631,6.631,0,0,0,303.687,232.059Z" transform="translate(-233.127 -183.088)"/><path class="b" d="M365.58,353.851s1.631,5.964,5.5,3.889a1.058,1.058,0,0,0,.879-.876s-.309.093-.4-.532a3.06,3.06,0,0,0-.184-.648,1.415,1.415,0,0,0-.586-.669h0s-1.237-1.413-4.149-1.143c0,0-.747-.275-.889-.2l.755.845a1.894,1.894,0,0,1,1.281-.519s-1.268.464-1.172.643c.018.039.42.43.42.43a3.065,3.065,0,0,1,2.1-.869s-1.587.353-1.945,1.019l.643.56a3.232,3.232,0,0,1,2.253-1.009s-1.644.425-2.105,1.12l.705.464a3.145,3.145,0,0,1,2.046-.972s-1.851.685-1.877,1.066a3.992,3.992,0,0,0,.9.4s.778-.747,1.346-.64c0,0-1.188.586-1.149.726a4.614,4.614,0,0,0,1.595.135,3.148,3.148,0,0,1-1.628.023,1.761,1.761,0,0,0,.721.695s-.612.111-.965-.762a4.04,4.04,0,0,1-.858-.35,3.8,3.8,0,0,0,.646,1.366,1.684,1.684,0,0,1-.837-1.483l-.718-.451a5.418,5.418,0,0,0,.581,1.657,2.133,2.133,0,0,1-.752-1.784l-.635-.539a6.426,6.426,0,0,0,.4,1.633,2.6,2.6,0,0,1-.578-1.8l-.381-.41s.1.778.153,1,0,.259,0,.259a2.655,2.655,0,0,1-.311-1.421A6.474,6.474,0,0,0,365.58,353.851Z" transform="translate(-279.354 -273.134)"/><path class="b" d="M536.21,374.441s1.631,5.964,5.5,3.889a1.055,1.055,0,0,0,.876-.876s-.306.093-.4-.531a2.784,2.784,0,0,0-.184-.648,1.408,1.408,0,0,0-.583-.669h0s-1.237-1.413-4.149-1.143c0,0-.747-.275-.892-.2l.757.845a1.894,1.894,0,0,1,1.281-.519s-1.268.464-1.175.646c.018.036.42.428.42.428a3.065,3.065,0,0,1,2.095-.869s-1.584.353-1.942,1.019l.64.56a3.238,3.238,0,0,1,2.253-1.009s-1.644.425-2.105,1.12l.705.464a3.147,3.147,0,0,1,2.048-.972s-1.851.685-1.88,1.068a4.045,4.045,0,0,0,.9.4s.778-.747,1.343-.64c0,0-1.187.589-1.146.726a4.614,4.614,0,0,0,1.595.135,3.148,3.148,0,0,1-1.628.023,1.742,1.742,0,0,0,.721.695s-.612.111-.967-.762a4.039,4.039,0,0,1-.858-.35,3.853,3.853,0,0,0,.648,1.369,1.691,1.691,0,0,1-.838-1.486l-.718-.451a5.392,5.392,0,0,0,.578,1.657,2.134,2.134,0,0,1-.752-1.784l-.633-.539a6.5,6.5,0,0,0,.4,1.633,2.588,2.588,0,0,1-.576-1.8l-.381-.41s.1.778.153,1,0,.259,0,.259A2.655,2.655,0,0,1,537,375.3S536.27,374.387,536.21,374.441Z" transform="translate(-405.748 -288.375)"/><path class="c" d="M922.97,656.719l2.611,2.756,4.141-7.3-.373-.819Z" transform="translate(-683.697 -482.042)"/><path class="d" d="M922.97,656.719l2.611,2.756,4.141-7.3-.373-.819Z" transform="translate(-683.697 -482.042)"/><path class="e" d="M151.387,595.2c0,13.846-9.482,16.784-18.985,16.784s-14.852-11.668-14.852-25.519,7.7-25.073,17.206-25.073S151.387,581.352,151.387,595.2Z" transform="translate(-95.622 -426.767)"/><path class="d" d="M151.387,595.2c0,13.846-9.482,16.784-18.985,16.784s-14.852-11.668-14.852-25.519,7.7-25.073,17.206-25.073S151.387,581.352,151.387,595.2Z" transform="translate(-95.622 -426.767)"/><path class="e" d="M143.517,588.19c0,13.846-6.1,25.073-13.633,25.073s-13.931-11.227-13.931-25.073a47.228,47.228,0,0,1-.075-5.564c1.377-11.167,7.519-19.506,14-19.506C137.413,563.12,143.517,574.344,143.517,588.19Z" transform="translate(-94.322 -428.048)"/><path class="c" d="M172.486,416.268s-11.95,13.4-15.746,24.567l103.2,11.393,55.28-11.393S293.321,414.6,287.4,413.587,172.486,416.268,172.486,416.268Z" transform="translate(-124.651 -317.329)"/><path class="f" d="M172.486,416.268s-11.95,13.4-15.746,24.567l103.2,11.393,55.28-11.393S293.321,414.6,287.4,413.587,172.486,416.268,172.486,416.268Z" transform="translate(-124.651 -317.329)"/><path class="c" d="M476.53,505.579l16.563,46.469V540.287l4.61-13.167,12.772-5.655,16.195,7.348,5.792,1.81.506-10.719-19.255-9.492-8.964-4.3-20.517-1.789-5.66-1.011Z" transform="translate(-352.994 -372.379)"/><path class="c" d="M528.689,554.837l15.07,1.729c-.685-6.018,3.783-6.018,3.783-6.018l-15.075-2.608H525.43" transform="translate(-397.764 -416.942)"/><path class="e" d="M567.842,654.876h10.683l30.935-1.037s.669,5.9,8.816,4.512c0,0,4.486.288,4.968-2.149s-10.216-24.961-10.216-24.961l-14.585-10.89-13.224-3.21-9.492,2.792-6.031,9.594-3.8,13.133Z" transform="translate(-427.745 -468.061)"/><path class="d" d="M567.842,654.876h10.683l30.935-1.037s.669,5.9,8.816,4.512c0,0,4.486.288,4.968-2.149s-10.216-24.961-10.216-24.961l-14.585-10.89-13.224-3.21-9.492,2.792-6.031,9.594-3.8,13.133Z" transform="translate(-427.745 -468.061)"/><path class="c" d="M195.28,434.562c-1.53,1.25-6.363,5.733-10.39,15.212a2.292,2.292,0,0,0,1.815,3.176L210.97,456.1A3.666,3.666,0,0,0,215,453.332l4.265-17.4a1.737,1.737,0,0,0-1.722-2.152l-21.2.394a1.719,1.719,0,0,0-1.066.389Z" transform="translate(-145.365 -332.424)"/><path class="g" d="M195.28,434.562c-1.53,1.25-6.363,5.733-10.39,15.212a2.292,2.292,0,0,0,1.815,3.176L210.97,456.1A3.666,3.666,0,0,0,215,453.332l4.265-17.4a1.737,1.737,0,0,0-1.722-2.152l-21.2.394a1.719,1.719,0,0,0-1.066.389Z" transform="translate(-145.365 -332.424)"/><path class="c" d="M339.235,432.889l27.323-.259a4.643,4.643,0,0,1,4.395,3.3l8.52,19.35a3.322,3.322,0,0,1-3.111,4.5l-39.883-2.627a5.666,5.666,0,0,1-4.885-7.042l2.891-13.138A5.019,5.019,0,0,1,339.235,432.889Z" transform="translate(-254.073 -331.568)"/><path class="g" d="M339.235,432.889l27.323-.259a4.643,4.643,0,0,1,4.395,3.3l8.52,19.35a3.322,3.322,0,0,1-3.111,4.5l-39.883-2.627a5.666,5.666,0,0,1-4.885-7.042l2.891-13.138A5.019,5.019,0,0,1,339.235,432.889Z" transform="translate(-254.073 -331.568)"/><path class="c" d="M520,423.949c7.47-.135,27.266-.7,37.114-2.969,0,0,16.9,12.731,21.964,22.335,0,0-26.343,6.412-44.537,7.281a6.894,6.894,0,0,1-6.526-3.889l-9.674-20.048a1.882,1.882,0,0,1,1.659-2.71Z" transform="translate(-392.375 -322.943)"/><path class="g" d="M520,423.949c7.47-.135,27.266-.7,37.114-2.969,0,0,16.9,12.731,21.964,22.335,0,0-26.343,6.412-44.537,7.281a6.894,6.894,0,0,1-6.526-3.889l-9.674-20.048a1.882,1.882,0,0,1,1.659-2.71Z" transform="translate(-392.375 -322.943)"/><path class="h" d="M558.054,441.5c3.111-.054,9.181-.215,15.109-.659a28.4,28.4,0,0,1,23.4,9.461l.192.218a3.692,3.692,0,0,1-2.017,6.031c-6.539,1.4-17.678,3.544-26.276,3.959a4.926,4.926,0,0,1-4.685-2.78l-6.9-14.3a1.343,1.343,0,0,1,1.185-1.926Z" transform="translate(-420.955 -337.596)"/><path class="c" d="M239.468,571.348v7.146l-78.994-12.059c-3.871-1.341-6.181-.519-6.181-.519-2.852-1.392-4.926-6.824-4.986-7h0L150.8,554.6l-12.109-20.027-16.109.669c2.533-20.253,9.827-21.22,9.827-21.22l94.639,8.785Z" transform="translate(-99.348 -391.679)"/><path class="i" d="M485.614,554.374c-.62.679-1.753,1.3-3.843,1.239-3.2-.078-3.809-2.811-3.889-4.442a7.634,7.634,0,0,1,.034-1.2l4.2-1.284.858.8,2.533,2.372A1.792,1.792,0,0,1,485.614,554.374Z" transform="translate(-362.535 -417.499)"/><path class="j" d="M485.614,553.514c-.62.679-1.753,1.3-3.843,1.239-3.2-.078-3.809-2.811-3.889-4.442a7.635,7.635,0,0,1,.034-1.2l4.2-1.283.858.8L485.5,551A1.792,1.792,0,0,1,485.614,553.514Z" transform="translate(-362.535 -416.863)"/><path class="i" d="M482.979,548.631a3.238,3.238,0,0,1-2.124,1.737l-2.964-.057a7.635,7.635,0,0,1,.034-1.2l4.2-1.283Z" transform="translate(-362.542 -416.868)"/><path class="k" d="M441.4,510.478s-6.7.9-4.913,6.954c1.353,4.589,4.374,4.9,5.759,4.781a22.942,22.942,0,0,1,2.424-.088l5.3.106a2.883,2.883,0,0,0,2.155-3.713C451.282,515.5,447.429,509.975,441.4,510.478Z" transform="translate(-331.653 -389.185)"/><ellipse class="d" cx="3.091" cy="4.022" rx="3.091" ry="4.022" transform="translate(70.384 131.582)"/><rect class="i" width="11.569" height="2.725" rx="1.363" transform="translate(68.644 133.792) rotate(6.09)"/><rect class="k" width="11.569" height="2.725" rx="1.363" transform="translate(68.644 133.567) rotate(6.09)"/><path class="i" d="M112.707,598.049s-5.546-5.474,1.19-18.648c0,0,8.637-13.068,22.039,1.229a47.547,47.547,0,0,1,9.938,22.335l-5.248.111s-5.028-24.347-19.768-23.118C120.859,579.956,110.137,581.854,112.707,598.049Z" transform="translate(-90.445 -436.158)"/><path class="i" d="M111.864,600.625s-5.549-5.471,1.19-18.65c0,0,8.637-13.065,22.039,1.229a47.582,47.582,0,0,1,9.941,22.335l-5.251.112s-5.033-24.342-19.773-23.115C120.011,582.535,109.289,584.433,111.864,600.625Z" transform="translate(-89.819 -438.064)"/><path class="c" d="M111.864,598.905s-5.549-5.474,1.19-18.65c0,0,8.637-13.065,22.039,1.229a47.564,47.564,0,0,1,9.941,22.335l-5.251.112s-5.033-24.344-19.773-23.118C120.011,580.812,109.289,582.713,111.864,598.905Z" transform="translate(-89.819 -436.791)"/><path class="d" d="M111.864,598.905s-5.549-5.474,1.19-18.65c0,0,8.637-13.065,22.039,1.229a47.564,47.564,0,0,1,9.941,22.335l-5.251.112s-5.033-24.344-19.773-23.118C120.011,580.812,109.289,582.713,111.864,598.905Z" transform="translate(-89.819 -436.791)"/><path class="l" d="M315.821,699.284v7.146l-78.994-12.059c-3.871-1.34-6.181-.519-6.181-.519-2.852-1.392-4.926-6.824-4.986-7h0l5.251-.111,15.189,2.121,55.2,7.929s9.791,1.117,10.348,1.556S315.821,699.284,315.821,699.284Z" transform="translate(-175.711 -519.615)"/><path class="i" d="M315.821,698.417v7.146L236.827,693.5c-3.871-1.338-6.181-.519-6.181-.519-2.852-1.392-4.926-6.824-4.986-7h0l5.251-.112,15.189,2.121,55.2,7.929s9.791,1.117,10.348,1.556S315.821,698.417,315.821,698.417Z" transform="translate(-175.711 -518.971)"/><path class="c" d="M315.821,699.284v7.146l-78.994-12.059c-3.871-1.34-6.181-.519-6.181-.519-2.852-1.392-4.926-6.824-4.986-7h0l5.251-.111,15.189,2.121,55.2,7.929s9.791,1.117,10.348,1.556S315.821,699.284,315.821,699.284Z" transform="translate(-175.711 -519.615)"/><path class="d" d="M315.821,699.284v7.146l-78.994-12.059c-3.871-1.34-6.181-.519-6.181-.519-2.852-1.392-4.926-6.824-4.986-7h0l5.251-.111,15.189,2.121,55.2,7.929s9.791,1.117,10.348,1.556S315.821,699.284,315.821,699.284Z" transform="translate(-175.711 -519.615)"/><path class="l" d="M793.9,633.75s-26.356,13.4-58.858,12.062c0,0-7.307.36-7.815-.309s1.885,2.816,1.885,2.816a3.11,3.11,0,0,1,1.8-.944c.895,0,4.983.3,4.983.3s46.723-1.978,58.674-12.588Z" transform="translate(-547.199 -480.451)"/><path class="d" d="M292.027,570.671c-4.908-15.759-4.646-26.75-3.563-33.189,1.177-7,3.557-10.3,3.581-10.333l.179.132c-.023.031-2.375,3.308-3.542,10.257-1.079,6.425-1.338,17.359,3.56,33.077Z" transform="translate(-221.749 -401.502)"/><path class="c" d="M665.325,555.107c.2.734.656,2.761-.073,3.308a2.789,2.789,0,0,0-.705,1.325,20.621,20.621,0,0,0-.633,3.143l-7.6,8.486L643.475,576.4l-30.712,2.121-18.539-30.152-41.654-24.5,11.372-.63c11.375-.633,43.664-7.779,43.664-7.779l36.526,8.069a24.476,24.476,0,0,1,14.65,9.648,49.98,49.98,0,0,1,6.482,12.964,4.866,4.866,0,0,1,.793,2.92,23,23,0,0,1-.64,5.168c-.091.391-.153.625-.153.625S665.284,554.941,665.325,555.107Z" transform="translate(-417.878 -392.746)"/><path class="i" d="M557.018,637.933s-2.232-23.888,14.52-30.37c0,0,23.564-9.946,37.412,17.082l7.034,15.414s2.009,3.8,7.483,3.684c0,0,25.8-.778,39.411-9.492l4.245-4.926s-2.121,6.923-4.245,8.486c0,0-8.375,9.827-38.864,11.616,0,0-12.469,1.338-16.229-10.5,0,0-5.1-26.8-31.011-26.579,0,0-15.223.3-15.6,26.5Z" transform="translate(-421.099 -459.643)"/><path class="c" d="M557.018,639.655s-2.232-23.885,14.52-30.37c0,0,23.564-9.944,37.412,17.082l7.034,15.412s2.009,3.8,7.483,3.684c0,0,25.8-.778,39.411-9.492l4.258-4.914s-2.121,6.923-4.245,8.486c0,0-8.375,9.83-38.864,11.616,0,0-12.469,1.341-16.229-10.5,0,0-5.1-26.8-31.01-26.579,0,0-15.223.3-15.6,26.507Z" transform="translate(-421.099 -460.92)"/><path class="d" d="M557.018,639.655s-2.232-23.885,14.52-30.37c0,0,23.564-9.944,37.412,17.082l7.034,15.412s2.009,3.8,7.483,3.684c0,0,25.8-.778,39.411-9.492l4.258-4.914s-2.121,6.923-4.245,8.486c0,0-8.375,9.83-38.864,11.616,0,0-12.469,1.341-16.229-10.5,0,0-5.1-26.8-31.01-26.579,0,0-15.223.3-15.6,26.507Z" transform="translate(-421.099 -460.92)"/><path class="d" d="M527.921,594.434,526.913,561.2a34.2,34.2,0,0,0-.259-6.741,26.932,26.932,0,0,0-1.9-5.515,3.88,3.88,0,0,0-1.3-1.315l-.594-.161.664-.049c.459.088.895.565,1.3,1.232a12.98,12.98,0,0,1,2.046,5.772,34.191,34.191,0,0,1,.259,6.765l1.009,33.225Z" transform="translate(-395.859 -416.498)"/><path class="d" d="M602.606,577.1l-.218.036a13.7,13.7,0,0,0-1.994-4.973c-3.207-4.592-4.255-7.706-4.374-9.785a5.357,5.357,0,0,1,.259-2.131,5.111,5.111,0,0,1,3.661-2.953h0l.389.065a5.711,5.711,0,0,0-3.85,2.964,5.232,5.232,0,0,0-.259,2.1c.13,2.035,1.18,5.09,4.335,9.614A13.726,13.726,0,0,1,602.606,577.1Z" transform="translate(-450.039 -423.848)"/><path class="d" d="M769.777,544.245c-14.23-8.492-44.353-16.389-44.657-16.467l.057-.218c.3.08,30.458,7.986,44.714,16.493Z" transform="translate(-545.687 -401.846)"/><path class="d" d="M822.086,549.5c-5.372-9.451-19.838-17.242-31.029-22.117a201.211,201.211,0,0,0-23.247-8.4l.06-.215a201.2,201.2,0,0,1,23.276,8.411c11.222,4.888,25.731,12.705,31.135,22.21Z" transform="translate(-577.311 -395.321)"/><ellipse class="i" cx="2.572" cy="10.926" rx="2.572" ry="10.926" transform="matrix(0.799, -0.602, 0.602, 0.799, 229.909, 135.581)"/><ellipse class="j" cx="2.572" cy="10.926" rx="2.572" ry="10.926" transform="matrix(0.799, -0.602, 0.602, 0.799, 229.91, 135.134)"/><ellipse class="i" cx="1.67" cy="9.023" rx="1.67" ry="9.023" transform="matrix(0.799, -0.602, 0.602, 0.799, 232.072, 136.132)"/><ellipse class="k" cx="1.67" cy="9.023" rx="1.67" ry="9.023" transform="matrix(0.799, -0.602, 0.602, 0.799, 232.073, 135.91)"/><path class="i" d="M848.2,625.66s.726-5.474,5.028-6.7c0,0,14.629-4.232,17.813-4.294a5.54,5.54,0,0,1,5.471,1.447l2.232,3.016s1.556,2.458-1.9,2.9c0,0-17.681,6.482-25.348,7.156a10.817,10.817,0,0,0-1.3.2C849.08,629.617,846.729,629.684,848.2,625.66Z" transform="translate(-636.509 -466.171)"/><path class="k" d="M849.065,624.8s.726-5.474,5.025-6.7c0,0,14.629-4.232,17.813-4.294a5.534,5.534,0,0,1,5.471,1.447l2.235,3.016s1.556,2.455-1.9,2.9c0,0-17.678,6.482-25.345,7.156a10.768,10.768,0,0,0-1.3.2C849.944,628.754,847.592,628.822,849.065,624.8Z" transform="translate(-637.149 -465.532)"/><path class="i" d="M855.1,627.632s.677-4.68,4.667-5.73c0,0,13.6-3.63,16.561-3.674,0,0,3.062-.863,5.087,1.237l2.074,2.58s1.452,2.1-1.766,2.484c0,0-16.436,5.549-23.564,6.122a10.954,10.954,0,0,0-1.2.169C855.923,631,853.737,631.07,855.1,627.632Z" transform="translate(-641.648 -468.834)"/><path class="e" d="M855.97,626.75s.674-4.667,4.667-5.73c0,0,13.6-3.63,16.561-3.674,0,0,3.062-.866,5.087,1.237l2.074,2.593s1.452,2.1-1.766,2.484c0,0-16.439,5.549-23.566,6.122a10.859,10.859,0,0,0-1.19.169C856.786,630.136,854.6,630.193,855.97,626.75Z" transform="translate(-642.289 -468.18)"/><path class="k" d="M861.569,625.815l-.029-.223c.2-.023,20.066-2.492,24.342-5.792l.137.176C881.694,623.308,862.388,625.709,861.569,625.815Z" transform="translate(-646.738 -470.137)"/><path class="k" d="M857.509,632.291l-.039-.22c.218-.039,22.073-4.086,26.787-7l.119.189C879.626,628.2,857.729,632.25,857.509,632.291Z" transform="translate(-643.724 -474.037)"/><path class="k" d="M855.511,638.817l-.041-.218c.259-.049,25.41-4.8,28.521-7.579l.148.166C880.994,634.01,856.549,638.622,855.511,638.817Z" transform="translate(-642.243 -478.44)"/><path class="i" d="M880.437,655.6a106.139,106.139,0,0,1-19.446,5.728q-1.322.238-2.616.591a7.939,7.939,0,0,1-3.228.384c-1.283-.337-1.994,1.226-.607,2.455l.088.078a4.96,4.96,0,0,0,3.69,1.219l2.134-.179s17.313-3.8,22.14-6.757c0,0,2.2-1.512,2.372-3.213s.368-3.041-1.379-2.035S880.437,655.6,880.437,655.6Z" transform="translate(-640.993 -495.091)"/><path class="k" d="M881.246,654.834a106.145,106.145,0,0,1-19.446,5.722q-1.322.236-2.616.591a7.934,7.934,0,0,1-3.228.384c-1.3-.337-1.994,1.226-.607,2.455l.042.036a5.1,5.1,0,0,0,3.8,1.263l2.054-.171h.034c.594-.13,17.372-3.84,22.117-6.741h.018c.148-.106,2.2-1.569,2.362-3.207.169-1.7.371-3.041-1.379-2.035-1.662.954-3.008,1.659-3.132,1.724Z" transform="translate(-641.59 -494.543)"/><path class="i" d="M888.691,660.769a108.756,108.756,0,0,1-16.13,5.074c-.83.182-1.652.394-2.468.63a8.285,8.285,0,0,1-2.632.436c-1.11-.148-1.639.959-.394,1.7l.039.023a4.8,4.8,0,0,0,3.135.633l1.924-.259s14.569-3.666,18.536-5.979c0,0,1.815-1.164,1.862-2.334s.161-2.074-1.278-1.3S888.691,660.769,888.691,660.769Z" transform="translate(-650.3 -499.229)"/><path class="e" d="M889.55,659.932a108.809,108.809,0,0,1-16.125,5.074c-.83.182-1.654.394-2.471.63a8.272,8.272,0,0,1-2.632.436c-1.11-.148-1.639.957-.392,1.7h0a4.926,4.926,0,0,0,3.215.651l1.872-.259h0c.3-.075,14.6-3.687,18.529-5.964h0c.062-.042,1.815-1.185,1.859-2.334s.161-2.087-1.278-1.3-2.528,1.338-2.593,1.369Z" transform="translate(-650.939 -498.615)"/><ellipse class="i" cx="2.936" cy="2.173" rx="2.936" ry="2.173" transform="translate(202.412 173.63) rotate(-87.138)"/><ellipse class="k" cx="2.933" cy="2.17" rx="2.933" ry="2.17" transform="translate(202.354 173.614) rotate(-87.15)"/><path class="i" d="M820.717,709.484s-11.37,1.732-14.385,1.9-3.469,1.841-3.469,1.841-.726,4.245,3.461,3.015l14.852-1.675s2.012.057,2.012-2.681v-.615a6.182,6.182,0,0,1,.1-1.024C823.372,709.818,823.152,709.123,820.717,709.484Z" transform="translate(-603.237 -536.387)"/><path class="k" d="M821.6,708.624s-11.37,1.732-14.385,1.9-3.461,1.844-3.461,1.844-.726,4.245,3.461,3.016l14.854-1.675s2.009.057,2.009-2.681v-.615a6.169,6.169,0,0,1,.1-1.024C824.265,708.958,824.034,708.263,821.6,708.624Z" transform="translate(-603.896 -535.75)"/><path class="k" d="M973.272,671.678a2.791,2.791,0,0,0-.705,1.325h0l-3.682,2.608a.3.3,0,0,1-.474-.244V672.63a2.274,2.274,0,0,1,1.1-1.95l3.832-2.31C973.541,669.1,974.008,671.126,973.272,671.678Z" transform="translate(-725.907 -506.088)"/><path class="e" d="M886.155,686.972l-.171,2.769a1.849,1.849,0,0,0,2.1,1.976,50.873,50.873,0,0,0,17.771-6.384l.485-5.658a.8.8,0,0,0-1.107-.812c-3.111,1.387-11.453,4.942-16.747,5.621A2.689,2.689,0,0,0,886.155,686.972Z" transform="translate(-664.84 -513.798)"/><path class="c" d="M893.26,689.828v4.5s13.848-3.272,16.918-5.479v-4.27A69.563,69.563,0,0,1,893.26,689.828Z" transform="translate(-670.234 -518.083)"/><path class="c" d="M983.275,650.2c-.7-.049-1.265-1.255-1.265-2.73s.586-2.733,1.3-2.733a.825.825,0,0,1,.594.293A22.284,22.284,0,0,1,983.275,650.2Z" transform="translate(-735.98 -488.599)"/><path class="k" d="M984.143,649.333c-.7-.047-1.263-1.252-1.263-2.728s.583-2.735,1.3-2.735a.837.837,0,0,1,.6.3A22.482,22.482,0,0,1,984.143,649.333Z" transform="translate(-736.625 -487.955)"/><path class="e" d="M630.3,666.982c0,24.541-10.371,25.073-23.9,25.073-10.807,0-15.23-11.224-15.23-25.073s3.472-25.042,14.276-25.042S630.3,653.136,630.3,666.982Z" transform="translate(-446.462 -486.431)"/><path class="d" d="M630.3,666.982c0,24.541-10.371,25.073-23.9,25.073-10.807,0-15.23-11.224-15.23-25.073s3.472-25.042,14.276-25.042S630.3,653.136,630.3,666.982Z" transform="translate(-446.462 -486.431)"/><ellipse class="e" cx="13.633" cy="25.073" rx="13.633" ry="25.073" transform="translate(144.709 155.478)"/><path class="k" d="M145.775,640.509c0,7.519-2.178,13.55-6.7,13.55s-9.9-6.1-9.9-13.625,1.88-14.144,6.4-14.144S145.775,632.985,145.775,640.509Z" transform="translate(-104.229 -474.907)"/><path class="e" d="M154.952,646.809q0,.856-.047,1.68a21.263,21.263,0,0,1-.633,4.283c-.734,2.769-2.074,4.693-4.029,5.059a3.813,3.813,0,0,1-.7.062,5.479,5.479,0,0,1-2.894-.939,11.45,11.45,0,0,1-4.457-6.176,13.131,13.131,0,0,1-.6-3.14c-.021-.29-.031-.586-.031-.882a27.645,27.645,0,0,1,.609-6.1,11.222,11.222,0,0,1,1.317-3.464,3.767,3.767,0,0,1,3.218-2.007,5.326,5.326,0,0,1,2.834.957,11.043,11.043,0,0,1,3.111,3.218A13.771,13.771,0,0,1,154.952,646.809Z" transform="translate(-113.409 -481.503)"/><path class="k" d="M154.957,651.225a21.262,21.262,0,0,1-.627,4.273c-.093-.106-2.655-3.067-4.579-1.167-1.413,1.392-.223,4.563.55,6.223a3.819,3.819,0,0,1-.7.062,5.479,5.479,0,0,1-2.894-.939v-.213a5.288,5.288,0,0,0-1.9-5.733,4.571,4.571,0,0,0-2.572-.233,13.131,13.131,0,0,1-.6-3.14,4.349,4.349,0,0,0,1.309-4.595,20.881,20.881,0,0,0-.731-2.383,11.221,11.221,0,0,1,1.33-3.459s.583,3.166,2.816,3.355,3.207-4.283,3.236-4.408a11.044,11.044,0,0,1,3.111,3.218,4.52,4.52,0,0,0-2.525,5.429A5.319,5.319,0,0,0,154.957,651.225Z" transform="translate(-113.466 -484.229)"/><ellipse class="e" cx="1.675" cy="2.904" rx="1.675" ry="2.904" transform="translate(31.849 162.031) rotate(-8.049)"/><path class="k" d="M611.077,693.865c0,9.015-1.921,16.236-5.912,16.236s-8.735-7.309-8.735-16.335,1.659-16.947,5.65-16.947S611.077,684.85,611.077,693.865Z" transform="translate(-450.357 -512.267)"/><path class="e" d="M619.168,701.459q0,1.037-.042,2.015a34.182,34.182,0,0,1-.56,5.123c-.646,3.319-1.815,5.621-3.555,6.062a2.658,2.658,0,0,1-.615.073,4.015,4.015,0,0,1-2.551-1.125,14.289,14.289,0,0,1-3.944-7.4,21.018,21.018,0,0,1-.519-3.762c-.018-.347-.029-.7-.029-1.058a44.371,44.371,0,0,1,.539-7.3,16.467,16.467,0,0,1,1.182-4.149c.705-1.506,1.641-2.4,2.839-2.4a3.941,3.941,0,0,1,2.5,1.146,12.312,12.312,0,0,1,2.754,3.856,20.9,20.9,0,0,1,2,8.927Z" transform="translate(-458.448 -520.2)"/><path class="k" d="M619.213,706.72a34.182,34.182,0,0,1-.56,5.123c-.08-.13-2.334-3.677-4.04-1.4-1.245,1.67-.2,5.468.485,7.462a2.658,2.658,0,0,1-.615.073,4.015,4.015,0,0,1-2.551-1.125v-.259s1-4.25-1.675-6.868a3.064,3.064,0,0,0-2.269-.28,21.019,21.019,0,0,1-.519-3.762c.228-.246,1.794-2.074,1.154-5.5-.244-1.3-.461-2.222-.643-2.852a16.467,16.467,0,0,1,1.182-4.149s.519,3.8,2.484,4.019,2.829-5.129,2.852-5.276a12.311,12.311,0,0,1,2.754,3.856s-3.145,1.779-2.227,6.505A5.046,5.046,0,0,0,619.213,706.72Z" transform="translate(-458.534 -523.452)"/><ellipse class="e" cx="1.483" cy="3.467" rx="1.483" ry="3.467" transform="translate(151.568 177.554) rotate(-4.68)"/><path d="M552.57,547.89" transform="translate(-417.866 -416.915)"/><path class="d" d="M608.8,558.766l-.091.2c-.088-.041-7.81-3.371-36.443-8.23q-2.007-.34-4.149-.692c-.132-.018-.259-.041-.4-.062-4.582-.747-9.64-1.522-15.22-2.334l.031-.223c7.558,1.089,14.157,2.126,19.913,3.111C601,555.4,608.708,558.727,608.8,558.766Z" transform="translate(-417.819 -416.561)"/><path class="i" d="M209.86,403.32s2.593-4.408,11.466-4.8c0,0,64.847-8.471,105.788.332,0,0,3.5,1.556-.3,2.468S235.843,405.389,209.86,403.32Z" transform="translate(-164.008 -303.624)"/><path class="m" d="M209.86,401.6s2.593-4.408,11.466-4.8c0,0,64.847-8.468,105.788.334,0,0,3.5,1.556-.3,2.468S235.843,403.667,209.86,401.6Z" transform="translate(-164.008 -302.349)"/><path class="i" d="M185.283,450.223c4.027-9.479,8.86-13.963,10.39-15.215a1.732,1.732,0,0,1,1.063-.389l21.215-.394a1.719,1.719,0,0,1,1.46.752,1.735,1.735,0,0,0-1.683-1.2l-21.215.394a1.711,1.711,0,0,0-1.063.389c-1.53,1.25-6.363,5.733-10.39,15.212a2.284,2.284,0,0,0,.184,2.147A2.282,2.282,0,0,1,185.283,450.223Z" transform="translate(-145.491 -332.429)"/><path class="i" d="M332.014,450.148,334.9,437.01a5.016,5.016,0,0,1,4.75-4.084l27.323-.259a4.408,4.408,0,0,1,2.852,1.022,4.457,4.457,0,0,0-3.288-1.439l-27.323.259a5.021,5.021,0,0,0-4.75,4.086l-2.9,13.135a5.964,5.964,0,0,0,1.924,5.86A6.008,6.008,0,0,1,332.014,450.148Z" transform="translate(-254.046 -331.291)"/><path class="i" d="M529.426,447.237l-9.671-20.048a1.882,1.882,0,0,1,1.659-2.7c7.366-.135,26.727-.687,36.7-2.878-.628-.49-.988-.762-.988-.762-9.853,2.269-29.644,2.834-37.114,2.969a1.882,1.882,0,0,0-1.659,2.7l9.674,20.04a6.9,6.9,0,0,0,3.957,3.526A6.89,6.89,0,0,1,529.426,447.237Z" transform="translate(-392.387 -322.847)"/><rect class="c" width="4.169" height="1.283" transform="translate(135.932 178.736)"/><rect class="d" width="4.169" height="1.283" transform="translate(135.932 178.736)"/><path class="c" d="M230.516,682.53l-5.126.884a2.656,2.656,0,0,0,.148.519c.1.259,5.7-.2,5.7-.2l-.539-.112Z" transform="translate(-175.501 -516.578)"/><path class="d" d="M230.516,682.53l-5.126.884a2.656,2.656,0,0,0,.148.519c.1.259,5.7-.2,5.7-.2l-.539-.112Z" transform="translate(-175.501 -516.578)"/><path class="i" d="M139.9,656.773c-4.522,0-9.9-6.1-9.9-13.625,0-5.157.884-9.892,2.9-12.358-2.593,2.092-3.729,7.369-3.729,13.19,0,7.519,5.38,13.625,9.9,13.625a4.8,4.8,0,0,0,3.788-1.893,4.566,4.566,0,0,1-2.956,1.061Z" transform="translate(-104.229 -478.239)"/><path class="i" d="M606.082,712.19c-4.05,0-8.868-7.325-8.868-16.361,0-6.194.778-11.878,2.593-14.839-2.334,2.512-3.337,8.849-3.337,15.84,0,9.036,4.818,16.361,8.868,16.361a4.055,4.055,0,0,0,3.391-2.271A3.53,3.53,0,0,1,606.082,712.19Z" transform="translate(-450.386 -515.356)"/><ellipse class="i" cx="6.674" cy="13.029" rx="6.674" ry="13.029" transform="translate(180.706 147.931) rotate(-45)"/><ellipse class="j" cx="6.674" cy="13.029" rx="6.674" ry="13.029" transform="translate(180.929 147.708) rotate(-45)"/><ellipse class="i" cx="4.893" cy="11.056" rx="4.893" ry="11.056" transform="translate(184.223 147.647) rotate(-45)"/><ellipse class="k" cx="4.893" cy="11.056" rx="4.893" ry="11.056" transform="translate(184.224 147.421) rotate(-45)"/><path class="c" d="M1057.539,795.089s-10.963-.661-9.671,7.021a1.868,1.868,0,0,0,.975,1.973s.018-.568,1.125-.376a5,5,0,0,0,1.19.057,2.463,2.463,0,0,0,1.455-.6h0s3.083-1.273,4.281-6.308c0,0,.887-1.1.85-1.382l-1.849.778a3.318,3.318,0,0,1,.135,2.445s-.06-2.4-.415-2.334c-.073,0-.962.462-.962.462s1.089,2.334.259,4.014c0,0,.311-2.852-.607-3.845l-1.3.76s1.271,2.4.41,4.361c0,0,.22-3.005-.684-4.177l-1.18.92s1.2,2.367.467,3.993c0,0-.1-3.5-.723-3.762a6.956,6.956,0,0,0-1.187,1.284s.817,1.716.308,2.624c0,0-.311-2.334-.565-2.334a7.7,7.7,0,0,0-1.136,2.593,5.614,5.614,0,0,1,.887-2.751,3.089,3.089,0,0,0-1.574.817s.158-1.092,1.815-1.188a7.184,7.184,0,0,1,1.076-1.242,6.751,6.751,0,0,0-2.666.306s.887-1.037,2.971-.563l1.164-.949a9.569,9.569,0,0,0-3.111.031s1.066-.913,3.425-.259l1.268-.757a11.546,11.546,0,0,0-2.971-.259,4.552,4.552,0,0,1,3.345.052l.9-.407s-1.364-.259-1.763-.309-.423-.153-.423-.153a4.735,4.735,0,0,1,2.564.285A11.591,11.591,0,0,0,1057.539,795.089Z" transform="translate(-784.684 -599.86)"/><ellipse class="b" cx="7.758" cy="1.312" rx="7.758" ry="1.312" transform="translate(257.547 203.58)"/><ellipse class="b" cx="4.374" cy="0.739" rx="4.374" ry="0.739" transform="translate(285.252 179.698)"/><path class="c" d="M1006.868,731.533s-7.462-.449-6.583,4.779a1.278,1.278,0,0,0,.664,1.346s.013-.389.778-.259a3.407,3.407,0,0,0,.812.039,1.69,1.69,0,0,0,.99-.41h0s2.1-.866,2.914-4.294c0,0,.6-.749.578-.941l-1.258.537a2.272,2.272,0,0,1,.091,1.665s-.041-1.631-.283-1.592c-.049,0-.653.314-.653.314a3.731,3.731,0,0,1,.182,2.733s.21-1.95-.415-2.616l-.884.519a3.922,3.922,0,0,1,.277,2.969s.15-2.046-.464-2.852l-.8.625a3.835,3.835,0,0,1,.316,2.717s-.065-2.38-.49-2.562a4.913,4.913,0,0,0-.812.876s.557,1.169.213,1.786c0,0-.213-1.587-.386-1.595a5.2,5.2,0,0,0-.778,1.771,3.829,3.829,0,0,1,.6-1.872,2.121,2.121,0,0,0-1.073.555s.109-.742,1.245-.806a5,5,0,0,1,.734-.848,4.62,4.62,0,0,0-1.815.21,2.041,2.041,0,0,1,2.022-.381l.793-.648a6.522,6.522,0,0,0-2.118.021,2.581,2.581,0,0,1,2.334-.169l.863-.519a7.839,7.839,0,0,0-2.022-.174,3.1,3.1,0,0,1,2.277.036l.617-.277s-.928-.184-1.2-.213-.288-.1-.288-.1a3.223,3.223,0,0,1,1.745.194A7.355,7.355,0,0,0,1006.868,731.533Z" transform="translate(-749.463 -552.786)"/><ellipse class="b" cx="5.282" cy="0.892" rx="5.282" ry="0.892" transform="translate(246.984 184.432)"/><ellipse class="b" cx="7.758" cy="1.312" rx="7.758" ry="1.312" transform="translate(0 192.115)"/><path class="n" d="M42.81,757.849s4.423-.135,5.759-1.086,6.806-2.074,7.138-.56,6.651,7.576,1.654,7.615-11.608-.778-12.941-1.589S42.81,757.849,42.81,757.849Z" transform="translate(-40.261 -570.518)"/><path class="d" d="M57.442,770.1c-5,.039-11.608-.778-12.938-1.589-1.014-.617-1.418-2.834-1.556-3.856H42.8s.28,3.57,1.61,4.379,7.945,1.631,12.941,1.589c1.442,0,1.939-.519,1.914-1.3C59.065,769.8,58.515,770.085,57.442,770.1Z" transform="translate(-40.254 -577.324)"/><path class="o" d="M540.26,406.858a5.2,5.2,0,0,0-.581-4.089l-.106-4.558c.583-1.206-1.426-4.193-1.426-4.193s-.477-2.256-.9-2.463-.9-1.154-.9-1.154a.7.7,0,0,0-.4-.617,29.973,29.973,0,0,1-1.929-4.237,4.747,4.747,0,0,1-.389-2.518,4.48,4.48,0,0,1,.189-.627c.018-.044.034-.086.049-.13s0-.036.021-.052l.018-.047a3.252,3.252,0,0,0,.311-1.346,2.8,2.8,0,0,0-1.844-2.1,8.765,8.765,0,0,1-2.593-1.366,6.009,6.009,0,0,1-1.3-3.371,4.874,4.874,0,0,0-1.509-3.238,4.152,4.152,0,0,0-3.145-.474,10.478,10.478,0,0,0-4.055,1.615,14.357,14.357,0,0,1-3.6,2.256c-.5.15-1.037.21-1.525.373a3.762,3.762,0,0,0-2.269,2.271h0c-.018.049-.031.1-.049.148s-.042.122-.06.184-.026.106-.036.158-.031.122-.042.184-.018.106-.023.158-.018.127-.023.189a1.534,1.534,0,0,0,0,.156v.2a8.31,8.31,0,0,0-1.452,1.815c-1.742,2.764-3.913,6.76-4.877,8.556l-.047.088v-.054s-4.255,4.27-1.771,3.695a5.078,5.078,0,0,1,.519-.093l-.044.487v.013c-.4.5-2.116,2.219,1.081,3.5,2.652,1.058,8.074,1.328,9.853,1.39l-.156.749c-2.748,2.253-1.691,4.823-1.742,6.5s-.319,3.669-.319,3.669-1.164,1.888-1,2.883a5.282,5.282,0,0,1-.845,2.621s-1.481,1.623-1.322,2.673a6.583,6.583,0,0,1-.259,2.409s-1,1.836-.581,2.883a2.46,2.46,0,0,1,.213,1.626s-2.168.314-2.334,1.468-2.113,1.571-2.113,1.571a35.7,35.7,0,0,0-4.335,1.836c-.848.578-5.336,4.768-5.336,4.768s-4.509,4.639-4.748,5.105-2.894,2.476-1.665,4.364c.062.093.124.189.189.283a16.057,16.057,0,0,0,4.877,4.623,7.463,7.463,0,0,1,1.95,1.5c.555.866,9.832,6.8,9.832,6.8s4.076,3.583,6.7,6.08l.2,1.2c-.034.052-.067.106-.1.169a.728.728,0,0,0,.259.71l.036.213s1.058,8.912,2.009,13.078a10.837,10.837,0,0,1-.192,5.927,5.291,5.291,0,0,1-1.1-1.486,11.217,11.217,0,0,0-.674,2.2c-.016.112-.026.215-.031.314a.08.08,0,0,0-.07.031l-.371.519c-.4.557-.76,1.151-1.12,1.737-.832,1.351-3.443,1.981-3.443,1.981a2.565,2.565,0,0,1-.7.259,8.037,8.037,0,0,1-2.22.067,3.63,3.63,0,0,0-.656.161,2.541,2.541,0,0,0-.5.228h0a1.9,1.9,0,0,0-.723,2.1h0l.029.018.029.018.047.029.07.044.06.034.062.039.065.036.08.044.067.039.171.091.08.044.112.057.091.044.122.06.119.054c.067.034.137.065.21.1l.122.054.14.057.135.054.14.054.259.1.13.044.184.062.14.044.213.062.117.031c.106.031.215.057.327.083l.109.023c.086.021.171.039.259.054l.065.016h.054c.093.018.187.031.283.047h.083l.373.044h.086c.1,0,.2.016.3.021h.524q.194,0,.389-.016h.08l.319-.031.14-.021.28-.047.132-.026c.135-.029.259-.06.407-.1a25.3,25.3,0,0,1,9.075-.778c2.334.2,2.92-.6,2.92-.6a1.384,1.384,0,0,0,.117-.2.735.735,0,0,0,.034-.08,1.4,1.4,0,0,0,.054-.145.494.494,0,0,1,.029-.1c.008-.034.023-.1.034-.153s0-.073.018-.109,0-.041,0-.062a1.443,1.443,0,0,0,.013-.153,5.764,5.764,0,0,0-.093-1.343,15.417,15.417,0,0,0-.85-2.852l-.166.114q-.028-.127-.054-.259a100.378,100.378,0,0,1-.778-11.224h0a1.4,1.4,0,0,0,.887-.306c.044-.036.067-.06.067-.06,1.981-1.61,1.009-8.964.355-9.985s-.778-6.27-1.011-7.939c-.112-.793-.519-1.024-1.071-1.037q-.115-.006-.231,0c-.078-1.556.15-5.214.327-7.711h0c0-.161.023-.319.034-.469l.5.026.739-4.408a33.655,33.655,0,0,1,3.018-6.22,24.672,24.672,0,0,0,2.852-9.643s.793-1.519.581-2.2c-.054-.176-.14-.674-.241-1.32a17.275,17.275,0,0,1,2.772-1.353,17.044,17.044,0,0,0,5.816-4.257l.153-.166a11.658,11.658,0,0,1,.653,1.123,22.164,22.164,0,0,0,3.436-2.938,1.8,1.8,0,0,0,.293-.519c.7-1.742-.016-5.468-.016-5.468A2.92,2.92,0,0,0,540.26,406.858Z" transform="translate(-370.442 -285.136)"/><g class="p" transform="translate(156.414 119.849)"><path class="q" d="M638.273,517.324a7.532,7.532,0,0,1-1.8,1.154c-.086-.677-.148-1.187-.161-1.346a14.92,14.92,0,0,1,1.18-3.168s2.362-3.168,2.308-3.646.913-1.846.913-1.846L642.857,505a1.556,1.556,0,0,0,.22,1.626c.646.845.106,2.536.106,2.536l.132,2.131v.213c-.075.075-.42.4-1.182,1.092-.7.633-.578.827-.5.879-.161.285.036.334.036.334a1.133,1.133,0,0,0,.187-.016l-.171.158A46.344,46.344,0,0,0,638.273,517.324Z" transform="translate(-636.313 -505)"/></g><path class="r" d="M572.382,398.145c-.64.669.088,1.608-.41,2.334-.283.407-.9.664-1.258,1.037-.687.747-.169,1.7.163,2.551,1.213,3.1-.607,6.625-4.408,8.556a7.963,7.963,0,0,0,5.225.428,4.549,4.549,0,0,0,3.353-2.717c.259-.853.036-1.761.474-2.577.682-1.273,2.769-2.038,3.386-3.324.482-1.009-.044-2.1-.659-3.073a24.391,24.391,0,0,0-2.627-3.428c-.6-.651-.6-.908-1.556-.734A4.591,4.591,0,0,0,572.382,398.145Z" transform="translate(-428.164 -305.315)"/><path class="r" d="M597.923,429.052a9.964,9.964,0,0,1-.609,2.686,13.939,13.939,0,0,1-1.361,3.189,4.743,4.743,0,0,1-2.663,2.113,3.334,3.334,0,0,0,2.774.8,4.424,4.424,0,0,1,2.124-.259,6.765,6.765,0,0,1,.915.49,2.608,2.608,0,0,0,3.07-.739,3.487,3.487,0,0,0,.537-3.226c-.207-.656-.578-1.255-.778-1.919a15.2,15.2,0,0,0-.646-2.977c-.69-1.3-2.593-2.074-3.9-2.593C597.317,427.325,597.955,428.222,597.923,429.052Z" transform="translate(-448.03 -327.136)"/><path class="i" d="M591,419.692a9.971,9.971,0,0,1-.609,2.678,13.617,13.617,0,0,1-1.361,3.189,4.757,4.757,0,0,1-2.66,2.113,3.319,3.319,0,0,0,2.772.8,4.456,4.456,0,0,1,2.123-.259,6.467,6.467,0,0,1,.915.487,2.608,2.608,0,0,0,3.07-.739,3.479,3.479,0,0,0,.537-3.226c-.207-.656-.578-1.255-.778-1.919a15.2,15.2,0,0,0-.646-2.977c-.69-1.3-2.606-2.074-3.9-2.593C590.394,417.963,591.032,418.85,591,419.692Z" transform="translate(-442.904 -320.201)"/><path class="s" d="M576.649,634.239s-.778,9.511-.443,10.784.913,18.477.913,18.477.233,10.029,1.014,12.135-5.276,1.506-5.484,1.481a38.866,38.866,0,0,1-1.714-4.289,9.95,9.95,0,0,0,.544-6.741c-.936-4.149-1.973-12.964-1.973-12.964l-1.722-10.384a7.151,7.151,0,0,0-.674-3.819c-.907-1.377-2.074-10.392-1.815-11.173s6.435-2.494,6.435-2.494l2.66,3.482Z" transform="translate(-427.266 -474.069)"/><path class="t" d="M565.455,629.755v.184c.018.171.036.353.057.539.324,3.01,1.068,7.519,1.688,8.461a6.184,6.184,0,0,1,.7,3.2v.259a2.728,2.728,0,0,1-.021.368l1.32,7.994.057.34.34,2.061s1.037,8.836,1.976,12.964a10.944,10.944,0,0,1-.119,5.658c-.026.086-.052.169-.078.244a5.278,5.278,0,0,1-.35.827s.213.6.49,1.356l.192.519c.036.093.07.184.1.277a10.952,10.952,0,0,0,.931,2.134c.2.026,6.262.622,5.481-1.481a6.225,6.225,0,0,1-.233-.939,108.4,108.4,0,0,1-.778-11.2s-.57-17.2-.91-18.477c-.223-.848.047-5.344.259-8.256h0c.1-1.46.189-2.52.189-2.52l-2.261-5.507-2.66-3.482a42.633,42.633,0,0,0-5.945,2.074l-.044.023a1.021,1.021,0,0,0-.446.389A8.859,8.859,0,0,0,565.455,629.755Z" transform="translate(-427.34 -474.091)"/><path class="u" d="M581.23,688.89s2.935.778,2.676,1.636Z" transform="translate(-439.096 -521.286)"/><path class="i" d="M587.25,805.7s.319.9.682,1.877c.415.2.731.319.731.319s1.13-1.05-.363-2.593c-.241-.259-.446-.469-.622-.669A5.732,5.732,0,0,1,587.25,805.7Z" transform="translate(-443.556 -606.938)"/><path class="v" d="M581.67,802.611c.114.622,1.481,1.312,2.219,1.646.28.124.472.2.472.2a1.428,1.428,0,0,0,.314-.5,1.949,1.949,0,0,0-.677-2.1c-.207-.213-.386-.4-.544-.581a5.364,5.364,0,0,1-1.107-1.5,11.3,11.3,0,0,0-.659,2.178A2.092,2.092,0,0,0,581.67,802.611Z" transform="translate(-439.41 -603.345)"/><path class="i" d="M581.67,808.833c.114.622,1.481,1.312,2.219,1.646a10.949,10.949,0,0,0,.931,2.134c.2.026,6.262.622,5.481-1.48a6.223,6.223,0,0,1-.233-.939l-1.68,1.185a2.663,2.663,0,0,1-2.142.156l-1.571-1.353-.391-.334a2.333,2.333,0,0,1-.69-.166,3.335,3.335,0,0,1-1.351-1.084c-.3-.316-.467-.4-.555-.417A2.092,2.092,0,0,0,581.67,808.833Z" transform="translate(-439.41 -609.568)"/><path class="v" d="M544.293,816.379a10.728,10.728,0,0,0,3.716,1.488,7.519,7.519,0,0,0,3.391-.1,24.684,24.684,0,0,1,8.912-.778c2.287.194,2.87-.6,2.87-.6a3.293,3.293,0,0,0,.215-2.334,15.456,15.456,0,0,0-.825-2.829s-1.037.729-1.9,1.338a2.667,2.667,0,0,1-2.142.158l-1.963-1.691a3.059,3.059,0,0,1-2.041-1.247c-.547-.586-.659-.392-.659-.392l-.373.5c-.4.555-.749,1.141-1.1,1.724-.817,1.338-3.371,1.965-3.371,1.965a2.722,2.722,0,0,1-.687.244,7.845,7.845,0,0,1-2.186.065,2.9,2.9,0,0,0-1.094.373A1.88,1.88,0,0,0,544.293,816.379Z" transform="translate(-411.683 -610.449)"/><circle class="w" cx="0.202" cy="0.202" r="0.202" transform="translate(144.26 201.493)"/><circle class="w" cx="0.202" cy="0.202" r="0.202" transform="translate(141.771 202.554)"/><circle class="w" cx="0.202" cy="0.202" r="0.202" transform="translate(142.753 204.063)"/><circle class="w" cx="0.202" cy="0.202" r="0.202" transform="translate(139.329 203.552)"/><circle class="w" cx="0.202" cy="0.202" r="0.202" transform="translate(143.158 202.149)"/><circle class="w" cx="0.202" cy="0.202" r="0.202" transform="translate(144.13 203.956)"/><circle class="w" cx="0.202" cy="0.202" r="0.202" transform="translate(140.565 203.145)"/><circle class="w" cx="0.202" cy="0.202" r="0.202" transform="translate(137.991 203.86)"/><path class="i" d="M544.292,829.83s3.482,2.393,7.107,1.392a24.683,24.683,0,0,1,8.912-.778c2.287.194,2.87-.6,2.87-.6a1.765,1.765,0,0,0,.293-.843.7.7,0,0,1,.016-.179,6.06,6.06,0,0,0-.093-1.3,6.216,6.216,0,0,1-3.461.853,61.716,61.716,0,0,0-8.017.993l-4.408-.182s-2.468-.534-2.458-1.455A1.861,1.861,0,0,0,544.292,829.83Z" transform="translate(-411.682 -623.9)"/><path class="v" d="M568.34,834.382a1.039,1.039,0,0,0,.22.018,24.67,24.67,0,0,0,3.775-.672,5.27,5.27,0,0,1,.965-.137c1.037-.054,3.576-.176,5.007-.166h.034a7.558,7.558,0,0,0,3-.726.7.7,0,0,1,.016-.179,7.428,7.428,0,0,1-3.049.747c-1.431,0-3.983.114-5.015.169a5.618,5.618,0,0,0-.993.14,19.551,19.551,0,0,1-3.931.653Z" transform="translate(-429.549 -627.596)"/><path class="x" d="M575.141,690.544a2.727,2.727,0,0,1-.021.368l1.32,7.994c.236.226.464.441.679.651a17.372,17.372,0,0,1,1.844,1.945c.778,1.208,3.534.586,3.482.469s-1.182-5.808-1.182-5.808l-.895-2.3a1.469,1.469,0,0,1-1.851-.389c-.578-.615-1.872-1.815-2.751-2.619l-.62-.565C575.146,690.383,575.143,690.474,575.141,690.544Z" transform="translate(-434.571 -522.245)"/><path class="u" d="M565.447,635.771v.161c.018.171.036.353.057.539.192-.07.381-.145.568-.228l.259-.119a13.655,13.655,0,0,0,2.414-1.493l-2.261-.972-.669-.288a1.022,1.022,0,0,0-.446.389A10.367,10.367,0,0,0,565.447,635.771Z" transform="translate(-427.329 -480.186)"/><path class="s" d="M489.972,623.081c.062.093.122.187.187.28a15.857,15.857,0,0,0,4.794,4.582,7.442,7.442,0,0,1,1.919,1.491c.544.856,9.666,6.741,9.666,6.741s4.245,3.76,6.809,6.241l.327.316.158.156c.189.184.36.358.519.519.228.231.417.433.563.6.055.062.1.119.145.171a2,2,0,0,1,.135.181c.778,1.208,3.534.583,3.482.467s-1.188-5.8-1.188-5.8l-.9-2.3a1.4,1.4,0,0,1-1.177.078,1.815,1.815,0,0,1-.672-.469c-.578-.612-1.875-1.815-2.754-2.616-.519-.477-.892-.814-.892-.814l-2.925-3.311s-3.742-4.872-6.547-6.08a29.92,29.92,0,0,1,5.416-1.639,9.852,9.852,0,0,0,2.507-.607l.259-.122a13.772,13.772,0,0,0,2.414-1.493l-2.253-.97-11.886-5.111c-.073,0-.762.047-1.268.08l-.537.036s-4.431,4.6-4.667,5.069S488.764,621.2,489.972,623.081Z" transform="translate(-371.264 -465.417)"/><path class="x" d="M523.909,642s-5.105.625-6.119,1.678c0,0,4.483.311,4.667.9,0,0-2.562-1.735-3.275-1.3Z" transform="translate(-392.103 -486.575)"/><path class="u" d="M582.29,725.617l.158.156c.189.184.36.358.519.519.228.231.417.433.563.6l.661-.856a2.735,2.735,0,0,0-.752-.456,1.3,1.3,0,0,0-1.143.036Z" transform="translate(-439.881 -548.299)"/><path class="v" d="M581.264,727.976a3.585,3.585,0,0,0,.534.22l.519-.685.672-.871a2.69,2.69,0,0,0-.752-.454,1.3,1.3,0,0,0-1.143.034,1.661,1.661,0,0,0-.609.672S580.286,727.475,581.264,727.976Z" transform="translate(-438.531 -548.747)"/><path class="u" d="M583.13,710.682l.106.106a3.586,3.586,0,0,0,.534.22l.519-.685a2,2,0,0,1,.135.182c.778,1.208,3.534.583,3.482.467s-1.18-5.8-1.18-5.8l-.9-2.3a1.4,1.4,0,0,1-1.177.078.573.573,0,0,0,0,.817,5.486,5.486,0,0,1,.884,2.593c.35.965-.713,2.147-1.325,2.645a1.905,1.905,0,0,1-.329.22.762.762,0,0,0-.3.332A6.276,6.276,0,0,0,583.13,710.682Z" transform="translate(-440.504 -531.563)"/><path class="v" d="M584.33,707.908l1.182,1.188a8.844,8.844,0,0,1,3.578,4.465,9.542,9.542,0,0,0,.423,1.037,4.641,4.641,0,0,1,.309,1.457c.029.3.041.6.052.861a1.4,1.4,0,0,0,.353.9l.016.016a1.4,1.4,0,0,0,1.911.163c.042-.034.065-.057.065-.057,1.947-1.6.993-8.888.35-9.9s-.76-6.223-1-7.872c-.109-.778-.519-1.016-1.053-1.037a15.285,15.285,0,0,0-1.846.277h-.1c-1.211.1-3.531.454-2.72,1.576a5.446,5.446,0,0,1,.884,2.593c.43,1.188-1.3,2.71-1.654,2.852S584.33,707.908,584.33,707.908Z" transform="translate(-441.393 -528.789)"/><circle class="w" cx="0.345" cy="0.345" r="0.345" transform="translate(144.301 178.041)"/><circle class="w" cx="0.345" cy="0.345" r="0.345" transform="translate(144.827 179.332)"/><circle class="w" cx="0.345" cy="0.345" r="0.345" transform="translate(146.445 181.412)"/><circle class="w" cx="0.345" cy="0.345" r="0.345" transform="translate(145.644 180.343)"/><circle class="w" cx="0.345" cy="0.345" r="0.345" transform="translate(147.117 182.643)"/><path class="i" d="M602.643,712.79a26.987,26.987,0,0,1,0,4.965,1.4,1.4,0,0,0,1.926.179c.042-.034.065-.057.065-.057,1.947-1.6.993-8.888.35-9.9s-.76-6.223-1-7.872c-.109-.778-.519-1.016-1.053-1.037a15.273,15.273,0,0,0-1.846.277,33.232,33.232,0,0,0,.519,6.705A47.683,47.683,0,0,1,602.643,712.79Z" transform="translate(-453.808 -528.744)"/><path class="i" d="M608.768,705.925a30.948,30.948,0,0,1,.858,6.656c-.039,1.374.119,4.053.207,5.378.042-.034.065-.057.065-.057,1.947-1.6.993-8.888.35-9.9s-.76-6.223-1-7.872c-.109-.778-.519-1.016-1.053-1.037A57.762,57.762,0,0,0,608.768,705.925Z" transform="translate(-459.074 -528.763)"/><path class="v" d="M604.833,699.44a36.817,36.817,0,0,0,.648,5.891,65.031,65.031,0,0,1,.939,7.607h-.156a65.848,65.848,0,0,0-.931-7.568,35.914,35.914,0,0,1-.653-5.912Z" transform="translate(-456.467 -529.022)"/><path class="y" d="M560.948,446.86a29.931,29.931,0,0,0-3.949.977c-1.429.529-1.639.817-1.639.817l-1.481.233V447.3a49.012,49.012,0,0,1-5.839.176.129.129,0,0,1-.034-.021c-.259-.259.156,2.054-.233,2.546s-2.074,2.2,1.066,3.464,10.263,1.395,10.263,1.395l2.028-4Z" transform="translate(-413.722 -342.122)"/><path class="s" d="M615.608,436.087l-5.608-1.2a13.588,13.588,0,0,0,1.623-4.294,5.9,5.9,0,0,0-.376-3.607c-1.613-3.272,4.361-4.991,4.361-4.991a29.924,29.924,0,0,0,4.149,5.079,3.211,3.211,0,0,0,1.815.949C623.664,428.031,615.608,436.087,615.608,436.087Z" transform="translate(-460.408 -323.714)"/><path class="i" d="M515.19,614.156s2.44,5.769,4.667,5.873c1.346.062,5.494.633,8.588,1.076l.277.039a13.773,13.773,0,0,0,2.414-1.494l-2.253-.97L517,613.57c-.073,0-.762.047-1.268.08Z" transform="translate(-390.178 -465.524)"/><path class="i" d="M569.913,627.826c2.121.306-.573,2.443-.573,2.443s1.037.778,2.235,3.63,1.768,2.65,1.768,2.65l3.321.181c.1-1.46.189-2.52.189-2.52l-2.261-5.507-2.66-3.482a42.633,42.633,0,0,0-5.945,2.074l-.044.023a1.022,1.022,0,0,0-.446.389C565.43,627.924,569.818,626.794,569.913,627.826Z" transform="translate(-427.443 -474.141)"/><path class="i" d="M615.608,450.605,610,449.41a13.588,13.588,0,0,0,1.623-4.294l1.755,1.693a4.336,4.336,0,0,0,2.4-.7,3.677,3.677,0,0,0,.819-.752c1.247-1.556,2.751-3.586,2.751-3.586s.176-.08.417-.169a3.211,3.211,0,0,0,1.815.949C623.664,442.549,615.608,450.605,615.608,450.605Z" transform="translate(-460.408 -338.227)"/><path class="y" d="M515.19,486.231s2.44,5.769,4.667,5.875,12.212,1.61,12.212,1.61,1.037.778,2.235,3.63S536.073,500,536.073,500l3.845.207.729-4.364a32.914,32.914,0,0,1,2.961-6.187,24.7,24.7,0,0,0,2.805-9.56s.778-1.509.573-2.183-.884-6.031-.936-6.6a14.765,14.765,0,0,1,1.143-3.111s2.287-3.111,2.235-3.586.884-1.815.884-1.815l2.074-3.42a1.556,1.556,0,0,0,.215,1.6c.622.832.1,2.494.1,2.494l.127,2.1.029.5s-.311.311-1.162,1.092-.449.882-.449.882c2.653-.363,4.729,3.952,4.729,3.952a21.353,21.353,0,0,0,3.371-2.912,1.8,1.8,0,0,0,.288-.5c.69-1.729-.016-5.424-.016-5.424a2.92,2.92,0,0,0-.22-3.067,5.19,5.19,0,0,0-.57-4.053l-.1-4.522c.57-1.193-1.405-4.149-1.405-4.149s-.467-2.235-.884-2.442-.882-1.143-.882-1.143c.052-1.037-2.7-1.143-2.961-1.2a5.04,5.04,0,0,1-.941-.55,8.147,8.147,0,0,0-.827-.49c-.469-.207-1.716.366-1.716.366s-1.5,2.025-2.754,3.586a3.612,3.612,0,0,1-.817.752,4.335,4.335,0,0,1-2.4.695l-1.789-1.724-5.279.322-1.229,6.08c-2.7,2.232-1.665,4.781-1.716,6.443s-.311,3.63-.311,3.63-1.143,1.872-.988,2.852a5.287,5.287,0,0,1-.832,2.593s-1.455,1.61-1.3,2.65a6.5,6.5,0,0,1-.259,2.391s-.985,1.815-.57,2.852a2.458,2.458,0,0,1,.207,1.613s-2.131.311-2.287,1.455-2.074,1.556-2.074,1.556a35.717,35.717,0,0,0-4.263,1.815C519.621,482.043,515.19,486.231,515.19,486.231Z" transform="translate(-390.18 -338.092)"/><path class="i" d="M670.972,516s-3.889.469-4.366,1.037,3.889.625,3.889.625Z" transform="translate(-502.312 -393.307)"/><path class="i" d="M661.3,525.763s2.852-1.014,2.935-.7-2.935,2.028-2.935,2.028Z" transform="translate(-498.408 -399.97)"/><path class="i" d="M643.587,504.812c-.5.78-4.587,5.811-4.587,5.811l4.408-6.433Z" transform="translate(-481.89 -384.56)"/><path class="i" d="M644.062,500.539c-.311.415-3.612,5.821-3.612,5.821l3.327-6.08Z" transform="translate(-482.964 -381.666)"/><path class="i" d="M673.077,473.382s-1.273-1.794-2.52-.651S673.077,473.382,673.077,473.382Z" transform="translate(-505.078 -360.997)"/><path class="i" d="M631.617,469.23a15.46,15.46,0,0,0-4.833.729C625.2,470.687,628.186,467.775,631.617,469.23Z" transform="translate(-472.517 -358.382)"/><path class="i" d="M632.29,447.434h.48a2.531,2.531,0,0,0,1.4-1.276c.285-.861,2.533-.075,2.533-.075s.324.244.039-.156.988-1.662,1.556-2.494a.7.7,0,0,0,.1-.21,7.793,7.793,0,0,0-.827-.493c-.469-.207-1.716.366-1.716.366s-1.5,2.028-2.754,3.586A3.613,3.613,0,0,1,632.29,447.434Z" transform="translate(-476.919 -339.035)"/><path class="y" d="M632.29,446.224h.48a2.531,2.531,0,0,0,1.4-1.276c.285-.861,2.533-.075,2.533-.075s.324.244.039-.156.988-1.662,1.556-2.494a.71.71,0,0,0,.1-.213,8.164,8.164,0,0,0-.827-.49c-.469-.207-1.716.366-1.716.366s-1.5,2.025-2.754,3.586A3.613,3.613,0,0,1,632.29,446.224Z" transform="translate(-476.919 -338.139)"/><circle class="z" cx="0.345" cy="0.345" r="0.345" transform="translate(151.192 111.007)"/><circle class="z" cx="0.345" cy="0.345" r="0.345" transform="translate(145.266 119.086)"/><circle class="z" cx="0.345" cy="0.345" r="0.345" transform="translate(147.404 113.987)"/><circle class="z" cx="0.345" cy="0.345" r="0.345" transform="translate(144.309 124.338)"/><circle class="z" cx="0.345" cy="0.345" r="0.345" transform="translate(139.917 133.399)"/><circle class="z" cx="0.345" cy="0.345" r="0.345" transform="translate(139.572 138.041)"/><path class="s" d="M553.27,413.424l.7,2.261,2.209-.156,1.973-2.105s.13-.379.332-.941a33.623,33.623,0,0,1,1.958-4.7c.726-1.089,1.2-5.611,1.2-5.611s-.8-1.815-3.078,1.815c-1.714,2.738-3.848,6.7-4.794,8.489C553.459,413.072,553.27,413.424,553.27,413.424Z" transform="translate(-418.385 -308.703)"/><path class="s" d="M591,547.5c0,.555,2.334.814,3.436.908l.565.039c-.259.586,1.117,5.056,1.117,5.056a2.589,2.589,0,0,0,.347-.044c1.815-.366,5.4-2.868,5.4-2.868s.078-.858,3.78-2.362a16.809,16.809,0,0,0,5.717-4.224,6.358,6.358,0,0,1,.583-.612L608.655,540s-.532.493-1.232,1.154a43.4,43.4,0,0,0-3.316,3.324c-.285.519-5.429,3.034-5.429,3.034a7.833,7.833,0,0,0-3.612-1.2S591,546.773,591,547.5Z" transform="translate(-446.335 -411.058)"/><path class="i" d="M589.545,523.73c-.156.311-7.2,4.989-8.393,5.066s1.118-2.235,1.2-2.261S589.545,523.73,589.545,523.73Z" transform="translate(-438.785 -399.026)"/><path class="i" d="M467.259,809.97l-.259-.06Z" transform="translate(-354.48 -610.849)"/><path class="aa" d="M547.24,827.091a2.853,2.853,0,0,1,1.094-.373,7.78,7.78,0,0,0,2.186-.067,5.211,5.211,0,0,0-.161,1.921l-.661-.026S547.229,828.009,547.24,827.091Z" transform="translate(-413.918 -623.249)"/><path class="i" d="M468.24,810.189l-.14-.029Z" transform="translate(-355.295 -611.034)"/><path class="i" d="M454.33,804.55Z" transform="translate(-345.095 -606.879)"/><path class="i" d="M454.35,804.56Z" transform="translate(-345.11 -606.886)"/><path class="i" d="M468.011,810.16h0Z" transform="translate(-355.206 -611.034)"/><path class="aa" d="M605.51,764.173c.029.3.042.6.052.861a1.4,1.4,0,0,0,.353.9l.016.016a12.5,12.5,0,0,0,.114-1.849C605.99,764.18,605.756,764.188,605.51,764.173Z" transform="translate(-457.082 -576.917)"/><path class="i" d="M654.34,541.143c1.693-.106,3.137,1.652,3.923,2.852a6.366,6.366,0,0,1,.583-.612L655.572,540S655.03,540.482,654.34,541.143Z" transform="translate(-493.253 -411.07)"/><path class="i" d="M654,535c2.653-.363,4.729,3.952,4.729,3.952a21.357,21.357,0,0,0,3.371-2.912,1.815,1.815,0,0,0,.288-.5c-.617-1.483-2.321-3.954-6.814-3.013l.029.5s-.311.311-1.162,1.089S654,535,654,535Z" transform="translate(-492.927 -405.38)"/><path class="y" d="M654,536.2c2.653-.363,4.729,3.952,4.729,3.952a21.353,21.353,0,0,0,3.371-2.912,1.8,1.8,0,0,0,.288-.5c-.617-1.483-2.321-3.957-6.814-3.016l.029.5s-.311.311-1.162,1.092S654,536.2,654,536.2Z" transform="translate(-492.927 -406.269)"/><path class="h" d="M654,536.2c2.653-.363,4.729,3.952,4.729,3.952a21.353,21.353,0,0,0,3.371-2.912,1.8,1.8,0,0,0,.288-.5c-.617-1.483-2.321-3.957-6.814-3.016l.029.5s-.311.311-1.162,1.092S654,536.2,654,536.2Z" transform="translate(-492.927 -406.269)"/><path class="i" d="M553.27,444.171l.7,2.261,2.209-.156,1.973-2.105s.13-.379.332-.941a10.306,10.306,0,0,1-3.345,1.273c-.921.047-1.26-.814-1.374-1.273C553.459,443.819,553.27,444.171,553.27,444.171Z" transform="translate(-418.385 -339.439)"/><path class="i" d="M550.188,446.394l.145-.169c.519-.6.985-1.066.985-1.066a2.422,2.422,0,0,0,.449,1.118,1.136,1.136,0,0,0,.98.436,6.221,6.221,0,0,0,1.939-.573c.778-.347,1.439-.721,1.439-.721v.625l.013.622V448.1s.544,3.793-4.5,1.768c0,0,.314-1.392-1.6-1.128Z" transform="translate(-415.992 -340.866)"/><path class="y" d="M552.632,443.619l.026,1.247V446.3s.544,3.793-4.5,1.768c0,0,.366-1.613-2.074-1.037s1.745-3.666,1.745-3.666.176,1.615,1.429,1.556A10.446,10.446,0,0,0,552.632,443.619Z" transform="translate(-412.499 -339.534)"/><path class="h" d="M552.632,443.619l.026,1.247V446.3s.544,3.793-4.5,1.768c0,0,.366-1.613-2.074-1.037s1.745-3.666,1.745-3.666.176,1.615,1.429,1.556A10.446,10.446,0,0,0,552.632,443.619Z" transform="translate(-412.499 -339.534)"/><path class="i" d="M599.531,579.028c-.052-.078-.259-6.288-1.066-6.443a7.931,7.931,0,0,0-2.805.674l.363,4.963Z" transform="translate(-449.785 -435.173)"/><path class="i" d="M604.765,572.142c-.259.586,1.117,5.056,1.117,5.056a2.6,2.6,0,0,0,.347-.044c-.127-1.849-.4-5.043-.972-5.152a2.759,2.759,0,0,0-1.058.1Z" transform="translate(-456.111 -434.747)"/><path class="y" d="M600.731,578.419c-.052-.078-.259-6.288-1.066-6.446a7.863,7.863,0,0,0-2.805.677l.363,4.963Z" transform="translate(-450.674 -434.72)"/><path class="h" d="M600.731,578.419c-.052-.078-.259-6.288-1.066-6.446a7.863,7.863,0,0,0-2.805.677l.363,4.963Z" transform="translate(-450.674 -434.72)"/><path class="r" d="M576.408,440.885a13.623,13.623,0,0,0,1.361-3.189,15.3,15.3,0,0,0,.467-1.615,6.433,6.433,0,0,0,4.408,2.738,12.854,12.854,0,0,1,.519,1.239,3.474,3.474,0,0,1-.531,3.223,2.612,2.612,0,0,1-3.07.739,6.331,6.331,0,0,0-.915-.487,4.694,4.694,0,0,0-2.124.259,3.322,3.322,0,0,1-2.772-.8A4.626,4.626,0,0,0,576.408,440.885Z" transform="translate(-433.556 -334.142)"/><circle class="i" cx="6.443" cy="6.443" r="6.443" transform="translate(143.613 92.252)"/><circle class="s" cx="6.443" cy="6.443" r="6.443" transform="translate(143.613 91.831)"/><path class="r" d="M582.871,383.674c-.757-.519-1.872-.106-2.671-.565a1.994,1.994,0,0,1-.8-1.055,3.813,3.813,0,0,1,2.269-4.773c.487-.163,1.006-.22,1.5-.371a14.19,14.19,0,0,0,3.537-2.235,10.219,10.219,0,0,1,3.985-1.6,4.044,4.044,0,0,1,3.093.469,4.8,4.8,0,0,1,1.483,3.213,5.9,5.9,0,0,0,1.26,3.34,8.53,8.53,0,0,0,2.544,1.356,2.769,2.769,0,0,1,1.815,2.074,9.022,9.022,0,0,1-.578,2.181,4.743,4.743,0,0,0,.381,2.5,29.92,29.92,0,0,0,3.21,6.373,17.373,17.373,0,0,1-5.1,1.882,4.43,4.43,0,0,1-2.225.013,3.677,3.677,0,0,1-2.012-1.908,6.349,6.349,0,0,1-.679-2.406c-.127-1.672.4-3.467-.345-4.971a1.717,1.717,0,0,0-.651-.749,5.093,5.093,0,0,0-1.084-.329,4.392,4.392,0,0,1-1.6-1.1l-1.716-1.6a4.832,4.832,0,0,0-1.335-.983,3.314,3.314,0,0,0-2.852.319c-.76.425-1.636,1.063-2.4.653" transform="translate(-437.583 -287.415)"/><g class="p" transform="translate(141.604 92.136)"><path d="M590.1,413.32l-.456-.13A1.092,1.092,0,0,0,590.1,413.32Z" transform="translate(-586.931 -409.334)"/><path d="M591.4,413.668l.519.145a1.314,1.314,0,0,0-.293-.153A1.643,1.643,0,0,1,591.4,413.668Z" transform="translate(-588.235 -409.683)"/><path d="M599,414.393a4.49,4.49,0,0,1-2.225.013,3.682,3.682,0,0,1-2.012-1.911,6.348,6.348,0,0,1-.679-2.406c-.127-1.672.4-3.464-.342-4.971a1.74,1.74,0,0,0-.635-.749,4.9,4.9,0,0,0-1.084-.327,4.457,4.457,0,0,1-1.6-1.1l-1.716-1.595a4.834,4.834,0,0,0-1.335-.983,3.314,3.314,0,0,0-2.852.319,5.138,5.138,0,0,1-1.722.778,1.37,1.37,0,0,1,.293.153l-.519-.145a1.092,1.092,0,0,1-.456-.13l.456.13a1.1,1.1,0,0,0,.226,0c-.731-.28-1.675,0-2.378-.41a1.992,1.992,0,0,1-.809-1.06,3.4,3.4,0,0,1-.174-1.68,3.6,3.6,0,0,0-.034,2.51,1.994,1.994,0,0,0,.809,1.058c.7.4,1.646.13,2.378.412a5.06,5.06,0,0,0,1.722-.778,3.316,3.316,0,0,1,2.852-.319,4.832,4.832,0,0,1,1.335.983l1.716,1.6a4.392,4.392,0,0,0,1.6,1.1,5.1,5.1,0,0,1,1.084.329,1.717,1.717,0,0,1,.633.749c.742,1.5.218,3.3.345,4.971a6.349,6.349,0,0,0,.679,2.406,3.677,3.677,0,0,0,2.012,1.908,4.42,4.42,0,0,0,2.222-.013,17.37,17.37,0,0,0,5.105-1.882c-.119-.179-.236-.36-.35-.542A17.442,17.442,0,0,1,599,414.393Z" transform="translate(-579.192 -398.32)"/><path d="M661.677,414.62a7.623,7.623,0,0,0-.363,1.094c-.016.08-.026.163-.034.244A5.163,5.163,0,0,0,661.677,414.62Z" transform="translate(-639.996 -410.394)"/></g><path class="i" d="M582.79,456.54a2.614,2.614,0,0,1-3.07.736,6.468,6.468,0,0,0-.915-.487,4.694,4.694,0,0,0-2.124.259,3.334,3.334,0,0,1-2.388-.519,3.92,3.92,0,0,1-.384.127,3.327,3.327,0,0,0,2.772.8,4.425,4.425,0,0,1,2.124-.259,6.754,6.754,0,0,1,.915.49,2.608,2.608,0,0,0,3.07-.739,3.3,3.3,0,0,0,.7-2.3A3.207,3.207,0,0,1,582.79,456.54Z" transform="translate(-433.674 -347.893)"/></g></svg>